<svg width="1440" height="247" viewBox="0 0 1440 247" fill="none" xmlns="http://www.w3.org/2000/svg">
<path d="M610.674 94.112C502.388 94.112 574.752 184.06 440.956 152.804C307.159 121.548 339.437 157.84 339.437 157.84C339.437 157.84 375.359 203.856 262.908 184.06C150.456 164.265 140.044 172.079 95.2714 184.06C50.4991 196.042 0 249.004 0 249.004H1491.02C1518.62 249.004 1533.19 10.5887 1499.35 13.5406C1495.87 13.8443 1493.02 14.1075 1490.7 14.3354C1490.96 15.123 1491.02 15.6244 1491.02 15.6244C1491.02 15.6244 1470.49 16.3232 1490.7 14.3354C1489.3 10.0673 1482.18 -2.60496 1448.33 10.5887C1408.25 26.2167 1256.23 48.096 1251.54 10.5887C1246.86 -26.9187 1077.14 48.096 999.049 37.5037C920.957 26.9113 843.907 18.4027 865.252 74.3165C886.597 130.23 718.961 94.112 610.674 94.112Z" fill="#F8A0FB"/>
<path d="M642.367 122.237C537.859 122.237 607.698 208.453 478.57 178.494C349.442 148.534 380.594 183.32 380.594 183.32C380.594 183.32 415.262 227.427 306.734 208.453C198.206 189.479 188.157 196.968 144.947 208.453C101.737 219.937 53 270.701 53 270.701H1492C1518.63 270.701 1532.7 42.1791 1500.04 45.0086C1496.68 45.2996 1493.93 45.5519 1491.69 45.7704C1491.94 46.5252 1492 47.0058 1492 47.0058C1492 47.0058 1472.18 47.6756 1491.69 45.7704C1490.34 41.6793 1483.46 29.5329 1450.8 42.1791C1412.11 57.1587 1265.4 78.1301 1260.88 42.1791C1256.35 6.22802 1092.56 78.1301 1017.19 67.9773C941.824 57.8245 867.462 49.6689 888.062 103.263C908.662 156.856 746.875 122.237 642.367 122.237Z" fill="#8757F8"/>
<path d="M721.631 161.1C628.956 161.1 690.888 230.147 576.382 206.154C461.875 182.16 489.499 210.019 489.499 210.019C489.499 210.019 520.242 245.343 424.003 230.147C327.764 214.951 318.853 220.95 280.536 230.147C242.218 239.345 199 280 199 280H1475.06C1498.67 280 1511.15 96.9842 1482.19 99.2502C1479.21 99.4833 1476.77 99.6854 1474.78 99.8603C1475 100.465 1475.06 100.85 1475.06 100.85C1475.06 100.85 1457.49 101.386 1474.78 99.8603C1473.58 96.584 1467.49 86.8563 1438.52 96.9842C1404.21 108.981 1274.11 125.776 1270.1 96.9842C1266.09 68.1922 1120.84 125.776 1054.01 117.645C987.179 109.514 921.238 102.983 939.505 145.904C957.773 188.825 814.306 161.1 721.631 161.1Z" fill="#612BDF"/>
</svg>
