<svg width="1440" height="143" viewBox="0 0 1440 143" fill="none" xmlns="http://www.w3.org/2000/svg">
<path d="M447.697 68.5673C324.511 68.5673 406.833 134.101 254.627 111.329C102.421 88.5564 139.14 114.998 139.14 114.998C139.14 114.998 180.005 148.524 52.0811 134.101C-75.8427 119.679 -87.6875 125.372 -138.62 134.101C-189.553 142.83 -247 181.417 -247 181.417H1449.17C1480.56 181.417 1497.15 7.71459 1458.65 9.86531C1454.69 10.0865 1451.45 10.2783 1448.81 10.4444C1449.1 11.0182 1449.17 11.3835 1449.17 11.3835C1449.17 11.3835 1425.82 11.8926 1448.81 10.4444C1447.22 7.33474 1439.11 -1.8979 1400.61 7.71459C1355.01 19.1007 1182.07 35.0414 1176.74 7.71459C1171.41 -19.6122 978.344 35.0414 889.508 27.3241C800.672 19.6068 713.021 13.4077 737.303 54.1449C761.584 94.8821 570.883 68.5673 447.697 68.5673Z" fill="#F8A0FB" fill-opacity="0.4"/>
<path d="M483.75 89.0584C364.863 89.0584 444.312 151.873 297.417 130.045C150.522 108.218 185.959 133.562 185.959 133.562C185.959 133.562 225.398 165.697 101.938 151.873C-21.5226 138.049 -32.9541 143.506 -82.1097 151.873C-131.265 160.24 -186.708 197.225 -186.708 197.225H1450.28C1480.58 197.225 1496.58 30.7307 1459.43 32.7921C1455.61 33.0042 1452.48 33.188 1449.93 33.3472C1450.22 33.8972 1450.28 34.2473 1450.28 34.2473C1450.28 34.2473 1427.74 34.7353 1449.93 33.3472C1448.4 30.3666 1440.57 21.517 1403.42 30.7307C1359.4 41.6444 1192.5 56.9236 1187.36 30.7307C1182.22 4.53775 995.882 56.9236 910.146 49.5265C824.409 42.1294 739.816 36.1875 763.251 75.2344C786.685 114.281 602.638 89.0584 483.75 89.0584Z" fill="#8757F8" fill-opacity="0.4"/>
<path d="M573.921 117.372C468.495 117.372 538.948 167.678 408.686 150.198C278.425 132.717 309.85 153.014 309.85 153.014C309.85 153.014 344.823 178.75 235.342 167.678C125.862 156.607 115.725 160.977 72.1352 167.678C28.5457 174.379 -20.6191 204 -20.6191 204H1431.01C1457.88 204 1472.07 70.6598 1439.12 72.3108C1435.73 72.4806 1432.95 72.6278 1430.7 72.7553C1430.95 73.1957 1431.01 73.4761 1431.01 73.4761C1431.01 73.4761 1411.02 73.867 1430.7 72.7553C1429.34 70.3682 1422.4 63.2809 1389.45 70.6598C1350.42 79.4002 1202.42 91.6368 1197.86 70.6598C1193.3 49.6828 1028.06 91.6368 952.034 85.7127C876.006 79.7887 800.992 75.03 821.773 106.301C842.554 137.573 679.347 117.372 573.921 117.372Z" fill="#612BDF" fill-opacity="0.4"/>
</svg>
