<svg width="1440" height="84" viewBox="0 0 1440 84" fill="none" xmlns="http://www.w3.org/2000/svg">
<path d="M0.774414 4.73486H1440.77V61.8388C1440.77 61.8388 1362.69 78.2826 1310.96 82.1124C1212.01 89.4383 1157.35 63.5595 1057.84 61.8388C930.895 59.6437 860.196 92.012 734.057 82.1124C642.555 74.9312 598.523 37.3122 506.504 40.2136C437.319 42.3951 404.956 68.3562 336.089 73.3272C244.477 79.94 194.05 50.3962 102.021 53.3915C62.2261 54.6867 0.774414 61.8388 0.774414 61.8388V4.73486Z" fill="#612BDF"/>
<path d="M-32.2529 -11.397L1551.68 -3.48125L1551.14 45.9494C1551.14 45.9494 1465.09 59.7543 1408.16 62.7852C1299.25 68.5827 1239.37 45.8809 1129.93 43.8444C990.315 41.2464 912.245 68.8766 773.592 59.6139C673.012 52.8947 624.934 20.0886 523.69 22.0944C447.569 23.6024 411.727 45.8971 335.93 49.8215C235.099 55.0422 179.91 29.1911 78.6541 31.278C34.8701 32.1804 -32.7911 38.0337 -32.7911 38.0337L-32.2529 -11.397Z" fill="#8757F8"/>
<path d="M0.0410156 -30.5925L1439.81 -47.9999L1441.03 -1.64087C1441.03 -1.64087 1363.31 12.6527 1311.67 16.3872C1212.9 23.5308 1157.69 3.18216 1058.16 2.98818C931.187 2.7407 861.192 29.8731 734.861 23.3611C643.22 18.6372 598.391 -11.371 506.448 -7.90306C437.321 -5.29573 405.519 16.1717 336.769 21.0398C245.313 27.5158 194.262 4.14058 102.312 7.68477C62.5512 9.21732 1.2622 15.7665 1.2622 15.7665L0.0410156 -30.5925Z" fill="#F8A0FB"/>
</svg>
