<svg width="1440" height="117" viewBox="0 0 1440 117" fill="none" xmlns="http://www.w3.org/2000/svg">
<path d="M0 0H1440V84.2887C1440 84.2887 1361.91 108.561 1310.18 114.214C1211.24 125.027 1156.58 86.8285 1057.07 84.2887C930.12 81.0486 859.421 128.826 733.282 114.214C641.78 103.614 597.749 48.086 505.729 52.3687C436.545 55.5887 404.182 93.9088 335.315 101.246C243.702 111.007 193.275 67.3987 101.246 71.82C61.4517 73.7318 0 84.2887 0 84.2887V0Z" fill="#612BDF"/>
<path d="M-33.0273 -23.8115L1550.9 -12.1275L1550.36 60.835C1550.36 60.835 1464.32 81.2119 1407.38 85.6856C1298.47 94.2432 1238.6 60.7339 1129.16 57.728C989.541 53.8931 911.471 94.6769 772.817 81.0046C672.237 71.0866 624.159 22.6631 522.915 25.6237C446.795 27.8496 410.953 60.7578 335.156 66.5505C234.324 74.2565 179.135 36.0988 77.8797 39.1792C34.0957 40.5112 -33.5656 49.151 -33.5656 49.151L-33.0273 -23.8115Z" fill="#8757F8"/>
<path d="M-0.733398 -52.1453L1439.04 -77.8396L1440.26 -9.41094C1440.26 -9.41094 1362.53 11.6873 1310.9 17.1996C1212.12 27.7439 1156.92 -2.29187 1057.39 -2.5782C930.413 -2.94349 860.418 37.1055 734.087 27.4934C642.446 20.5207 597.617 -23.7731 505.674 -18.6543C436.547 -14.8057 404.744 16.8814 335.995 24.067C244.539 33.6259 193.487 -0.87718 101.537 4.35425C61.7768 6.61637 0.487788 16.2834 0.487788 16.2834L-0.733398 -52.1453Z" fill="#F8A0FB"/>
</svg>
