<svg width="105" height="105" viewBox="0 0 105 105" fill="none" xmlns="http://www.w3.org/2000/svg">
<g clip-path="url(#clip0_41_380)">
<path d="M77.6695 61.25C78.9622 61.25 80.2422 61.5046 81.4365 61.9993C82.6308 62.494 83.716 63.2191 84.63 64.1332C85.5441 65.0472 86.2692 66.1324 86.7639 67.3267C87.2586 68.521 87.5132 69.8011 87.5132 71.0938V75.0531C87.5132 77.4173 87.0022 79.7535 86.0153 81.9019C85.0283 84.0502 83.5887 85.9598 81.7951 87.5C74.9438 93.38 65.1438 96.2544 52.5001 96.2544C39.8563 96.2544 30.0651 93.38 23.227 87.5044C21.4355 85.9639 19.9979 84.0546 19.0125 81.9071C18.0271 79.7596 17.5172 77.4246 17.5176 75.0619V71.0938C17.5176 68.483 18.5547 65.9792 20.4007 64.1332C22.2468 62.2871 24.7506 61.25 27.3613 61.25H77.6695Z" fill="url(#paint0_radial_41_380)"/>
<path d="M77.6695 61.25C78.9622 61.25 80.2422 61.5046 81.4365 61.9993C82.6308 62.494 83.716 63.2191 84.63 64.1332C85.5441 65.0472 86.2692 66.1324 86.7639 67.3267C87.2586 68.521 87.5132 69.8011 87.5132 71.0938V75.0531C87.5132 77.4173 87.0022 79.7535 86.0153 81.9019C85.0283 84.0502 83.5887 85.9598 81.7951 87.5C74.9438 93.38 65.1438 96.2544 52.5001 96.2544C39.8563 96.2544 30.0651 93.38 23.227 87.5044C21.4355 85.9639 19.9979 84.0546 19.0125 81.9071C18.0271 79.7596 17.5172 77.4246 17.5176 75.0619V71.0938C17.5176 68.483 18.5547 65.9792 20.4007 64.1332C22.2468 62.2871 24.7506 61.25 27.3613 61.25H77.6695Z" fill="url(#paint1_linear_41_380)"/>
<path d="M77.6695 61.25C78.9622 61.25 80.2422 61.5046 81.4365 61.9993C82.6308 62.494 83.716 63.2191 84.63 64.1332C85.5441 65.0472 86.2692 66.1324 86.7639 67.3267C87.2586 68.521 87.5132 69.8011 87.5132 71.0938V75.0531C87.5132 77.4173 87.0022 79.7535 86.0153 81.9019C85.0283 84.0502 83.5887 85.9598 81.7951 87.5C74.9438 93.38 65.1438 96.2544 52.5001 96.2544C39.8563 96.2544 30.0651 93.38 23.227 87.5044C21.4355 85.9639 19.9979 84.0546 19.0125 81.9071C18.0271 79.7596 17.5172 77.4246 17.5176 75.0619V71.0938C17.5176 68.483 18.5547 65.9792 20.4007 64.1332C22.2468 62.2871 24.7506 61.25 27.3613 61.25H77.6695Z" fill="url(#paint2_radial_41_380)"/>
<path d="M77.6695 61.25C78.9622 61.25 80.2422 61.5046 81.4365 61.9993C82.6308 62.494 83.716 63.2191 84.63 64.1332C85.5441 65.0472 86.2692 66.1324 86.7639 67.3267C87.2586 68.521 87.5132 69.8011 87.5132 71.0938V75.0531C87.5132 77.4173 87.0022 79.7535 86.0153 81.9019C85.0283 84.0502 83.5887 85.9598 81.7951 87.5C74.9438 93.38 65.1438 96.2544 52.5001 96.2544C39.8563 96.2544 30.0651 93.38 23.227 87.5044C21.4355 85.9639 19.9979 84.0546 19.0125 81.9071C18.0271 79.7596 17.5172 77.4246 17.5176 75.0619V71.0938C17.5176 68.483 18.5547 65.9792 20.4007 64.1332C22.2468 62.2871 24.7506 61.25 27.3613 61.25H77.6695Z" fill="url(#paint3_radial_41_380)"/>
<path d="M77.6695 61.25C78.9622 61.25 80.2422 61.5046 81.4365 61.9993C82.6308 62.494 83.716 63.2191 84.63 64.1332C85.5441 65.0472 86.2692 66.1324 86.7639 67.3267C87.2586 68.521 87.5132 69.8011 87.5132 71.0938V75.0531C87.5132 77.4173 87.0022 79.7535 86.0153 81.9019C85.0283 84.0502 83.5887 85.9598 81.7951 87.5C74.9438 93.38 65.1438 96.2544 52.5001 96.2544C39.8563 96.2544 30.0651 93.38 23.227 87.5044C21.4355 85.9639 19.9979 84.0546 19.0125 81.9071C18.0271 79.7596 17.5172 77.4246 17.5176 75.0619V71.0938C17.5176 68.483 18.5547 65.9792 20.4007 64.1332C22.2468 62.2871 24.7506 61.25 27.3613 61.25H77.6695Z" fill="url(#paint4_radial_41_380)"/>
<path d="M52.4999 10.9375L52.0536 10.9681C51.2681 11.076 50.5481 11.4646 50.027 12.0622C49.5058 12.6598 49.2186 13.4258 49.2186 14.2188L49.188 21.875H55.7505L55.7811 14.2188L55.7505 13.7725C55.6427 12.987 55.254 12.267 54.6564 11.7459C54.0589 11.2247 53.2928 10.9375 52.4999 10.9375Z" fill="url(#paint5_linear_41_380)"/>
<path d="M78.75 27.3438C78.75 24.733 77.7129 22.2292 75.8668 20.3832C74.0208 18.5371 71.517 17.5 68.9062 17.5H36.0938C33.483 17.5 30.9792 18.5371 29.1332 20.3832C27.2871 22.2292 26.25 24.733 26.25 27.3438V42.6562C26.25 45.267 27.2871 47.7708 29.1332 49.6168C30.9792 51.4629 33.483 52.5 36.0938 52.5H68.9062C71.517 52.5 74.0208 51.4629 75.8668 49.6168C77.7129 47.7708 78.75 45.267 78.75 42.6562V27.3438Z" fill="url(#paint6_radial_41_380)"/>
<path d="M62.309 28.4377C61.5781 28.4171 60.8505 28.5432 60.1691 28.8086C59.4878 29.074 58.8667 29.4733 58.3424 29.983C57.8181 30.4927 57.4013 31.1023 57.1168 31.7758C56.8322 32.4494 56.6855 33.1731 56.6855 33.9043C56.6855 34.6355 56.8322 35.3592 57.1168 36.0328C57.4013 36.7063 57.8181 37.3159 58.3424 37.8256C58.8667 38.3352 59.4878 38.7346 60.1691 39C60.8505 39.2654 61.5781 39.3915 62.309 39.3709C63.732 39.3306 65.0833 38.737 66.0756 37.7162C67.0679 36.6954 67.623 35.3279 67.623 33.9043C67.623 32.4807 67.0679 31.1132 66.0756 30.0924C65.0833 29.0716 63.732 28.478 62.309 28.4377Z" fill="url(#paint7_linear_41_380)"/>
<path d="M42.6561 28.4377C41.9252 28.4171 41.1976 28.5432 40.5163 28.8086C39.835 29.074 39.2138 29.4733 38.6895 29.983C38.1653 30.4927 37.7485 31.1023 37.4639 31.7758C37.1793 32.4494 37.0327 33.1731 37.0327 33.9043C37.0327 34.6355 37.1793 35.3592 37.4639 36.0328C37.7485 36.7063 38.1653 37.3159 38.6895 37.8256C39.2138 38.3352 39.835 38.7346 40.5163 39C41.1976 39.2654 41.9252 39.3915 42.6561 39.3709C44.0792 39.3306 45.4304 38.737 46.4228 37.7162C47.4151 36.6954 47.9702 35.3279 47.9702 33.9043C47.9702 32.4807 47.4151 31.1132 46.4228 30.0924C45.4304 29.0716 44.0792 28.478 42.6561 28.4377Z" fill="url(#paint8_linear_41_380)"/>
<path d="M100.704 91.7218L104.051 92.8068L104.116 92.8243C104.309 92.8925 104.484 93.0043 104.626 93.1512C104.769 93.2981 104.876 93.4759 104.938 93.6708C105 93.8658 105.016 94.0725 104.985 94.2748C104.955 94.4771 104.877 94.6694 104.759 94.8368C104.601 95.0605 104.376 95.2288 104.116 95.3181L100.769 96.4031C99.751 96.7419 98.8254 97.3133 98.066 98.0719C97.3066 98.8305 96.7343 99.7555 96.3945 100.774L95.3095 104.116C95.2189 104.375 95.0503 104.599 94.8269 104.757C94.6035 104.915 94.3365 105 94.0626 105C93.7888 105 93.5217 104.915 93.2983 104.757C93.075 104.599 92.9063 104.375 92.8157 104.116L91.7264 100.774C91.3887 99.7536 90.8179 98.8262 90.0592 98.0653C89.3005 97.3043 88.3749 96.7307 87.3557 96.39L84.0089 95.3006C83.8159 95.2325 83.6413 95.1206 83.4988 94.9737C83.3563 94.8269 83.2497 94.649 83.1874 94.4541C83.1251 94.2592 83.1088 94.0525 83.1397 93.8502C83.1707 93.6479 83.248 93.4555 83.3657 93.2881C83.5246 93.0644 83.7495 92.8961 84.0089 92.8068L87.3557 91.7218C88.3608 91.3743 89.2722 90.7995 90.0189 90.0422C90.7655 89.2849 91.3274 88.3655 91.6607 87.3556L92.7501 84.0087C92.8407 83.7503 93.0093 83.5264 93.2327 83.368C93.4561 83.2096 93.7232 83.1245 93.997 83.1245C94.2708 83.1245 94.5379 83.2096 94.7613 83.368C94.9846 83.5264 95.1533 83.7503 95.2439 84.0087L96.3332 87.3512C96.6726 88.3689 97.2443 89.2937 98.0028 90.0523C98.7614 90.8108 99.6862 91.3825 100.704 91.7218Z" fill="url(#paint9_linear_41_380)"/>
<path d="M69.3616 75.0136C70.7248 76.3839 71.7507 78.0524 72.3584 79.8873L74.3184 85.9117C74.4823 86.376 74.7861 86.7781 75.1881 87.0626C75.5901 87.347 76.0704 87.4997 76.5628 87.4997C77.0552 87.4997 77.5355 87.347 77.9375 87.0626C78.3395 86.7781 78.6433 86.376 78.8072 85.9117L80.7672 79.8873C81.3781 78.0567 82.407 76.3935 83.7724 75.0296C85.1378 73.6657 86.8021 72.6387 88.6334 72.0298L94.6622 70.0698C95.1231 69.9031 95.5214 69.5984 95.8029 69.1972C96.0844 68.796 96.2355 68.3177 96.2355 67.8276C96.2355 67.3375 96.0844 66.8593 95.8029 66.4581C95.5214 66.0569 95.1231 65.7522 94.6622 65.5854L94.5397 65.5548L88.5109 63.5948C86.6796 62.986 85.0153 61.9589 83.6499 60.595C82.2845 59.2311 81.2556 57.568 80.6447 55.7373L78.6891 49.7129C78.5261 49.2471 78.2224 48.8434 77.8199 48.5577C77.4174 48.2721 76.936 48.1187 76.4425 48.1187C75.949 48.1187 75.4676 48.2721 75.0651 48.5577C74.6626 48.8434 74.3589 49.2471 74.1959 49.7129L72.2359 55.7373L72.1878 55.8861C71.5748 57.6711 70.5632 59.293 69.2298 60.6287C67.8963 61.9644 66.2762 62.9787 64.4922 63.5948L58.4634 65.5548C58.0025 65.7215 57.6042 66.0262 57.3227 66.4274C57.0412 66.8286 56.8901 67.3069 56.8901 67.797C56.8901 68.2871 57.0412 68.7653 57.3227 69.1665C57.6042 69.5678 58.0025 69.8725 58.4634 70.0392L64.4922 71.9992C66.3297 72.6117 67.9922 73.6442 69.3616 75.0136Z" fill="url(#paint10_linear_41_380)"/>
</g>
<defs>
<radialGradient id="paint0_radial_41_380" cx="0" cy="0" r="1" gradientUnits="userSpaceOnUse" gradientTransform="translate(1.36071 50.4787) rotate(30.4076) scale(97.3555 155.072)">
<stop stop-color="#F08AF4"/>
<stop offset="0.535" stop-color="#9C6CFE"/>
<stop offset="1" stop-color="#4E44DB"/>
</radialGradient>
<linearGradient id="paint1_linear_41_380" x1="52.5132" y1="57.0806" x2="68.3507" y2="116.257" gradientUnits="userSpaceOnUse">
<stop stop-color="#885EDB" stop-opacity="0"/>
<stop offset="1" stop-color="#E362F8"/>
</linearGradient>
<radialGradient id="paint2_radial_41_380" cx="0" cy="0" r="1" gradientUnits="userSpaceOnUse" gradientTransform="translate(76.7463 77.4069) rotate(-90) scale(16.1562 9.17039)">
<stop stop-color="#4E44DB"/>
<stop offset="1" stop-color="#4E44DB" stop-opacity="0"/>
</radialGradient>
<radialGradient id="paint3_radial_41_380" cx="0" cy="0" r="1" gradientUnits="userSpaceOnUse" gradientTransform="translate(74.053 72.0212) rotate(-134.995) scale(15.2309 11.4231)">
<stop stop-color="#4E44DB"/>
<stop offset="1" stop-color="#4E44DB" stop-opacity="0"/>
</radialGradient>
<radialGradient id="paint4_radial_41_380" cx="0" cy="0" r="1" gradientUnits="userSpaceOnUse" gradientTransform="translate(76.7463 69.3263) rotate(180) scale(24.23 9.50858)">
<stop stop-color="#4E44DB"/>
<stop offset="1" stop-color="#4E44DB" stop-opacity="0"/>
</radialGradient>
<linearGradient id="paint5_linear_41_380" x1="49.0392" y1="8.75" x2="56.8049" y2="16.9356" gradientUnits="userSpaceOnUse">
<stop stop-color="#8B52F4"/>
<stop offset="1" stop-color="#3D35B1"/>
</linearGradient>
<radialGradient id="paint6_radial_41_380" cx="0" cy="0" r="1" gradientUnits="userSpaceOnUse" gradientTransform="translate(7.875 2.49813) rotate(37.6946) scale(87.4965 165.29)">
<stop stop-color="#F08AF4"/>
<stop offset="0.535" stop-color="#9C6CFE"/>
<stop offset="1" stop-color="#4E44DB"/>
</radialGradient>
<linearGradient id="paint7_linear_41_380" x1="59.4346" y1="28.8577" x2="67.7208" y2="43.1596" gradientUnits="userSpaceOnUse">
<stop stop-color="#FDFDFD"/>
<stop offset="1" stop-color="#F9DCFA"/>
</linearGradient>
<linearGradient id="paint8_linear_41_380" x1="39.7774" y1="28.8577" x2="48.0636" y2="43.1596" gradientUnits="userSpaceOnUse">
<stop stop-color="#FDFDFD"/>
<stop offset="1" stop-color="#F9DCFA"/>
</linearGradient>
<linearGradient id="paint9_linear_41_380" x1="87.5001" y1="85.3125" x2="100.634" y2="102.808" gradientUnits="userSpaceOnUse">
<stop stop-color="#FFA43D"/>
<stop offset="1" stop-color="#FB5937"/>
</linearGradient>
<linearGradient id="paint10_linear_41_380" x1="87.8109" y1="81.8736" x2="60.2003" y2="50.1242" gradientUnits="userSpaceOnUse">
<stop stop-color="#FF8A69"/>
<stop offset="1" stop-color="#FFCD0F"/>
</linearGradient>
<clipPath id="clip0_41_380">
<rect width="105" height="105" fill="white"/>
</clipPath>
</defs>
</svg>
