<svg width="1440" height="940" viewBox="0 0 1440 940" fill="none" xmlns="http://www.w3.org/2000/svg">
<path d="M583.674 819.087C475.388 819.087 547.752 906.144 413.956 875.893C280.159 845.641 312.437 880.766 312.437 880.766C312.437 880.766 348.359 925.303 235.908 906.144C123.456 886.985 113.044 894.548 68.2714 906.144C23.4991 917.741 -27 969 -27 969H1464.02C1491.62 969 1506.19 738.248 1472.35 741.105C1468.87 741.399 1466.02 741.654 1463.7 741.875C1463.96 742.637 1464.02 743.122 1464.02 743.122C1464.02 743.122 1443.49 743.798 1463.7 741.875C1462.3 737.744 1455.18 725.479 1421.33 738.248C1381.25 753.374 1229.23 774.55 1224.54 738.248C1219.86 701.947 1050.14 774.55 972.049 764.298C893.957 754.046 816.907 745.811 838.252 799.928C859.597 854.044 691.961 819.087 583.674 819.087Z" fill="#4232C6" fill-opacity="0.15"/>
<path d="M-32.3405 963.734C-32.3417 963.735 -32.3428 963.736 -27 969L-32.3428 963.736L-44.917 976.5H-27H-26.9833H-26.9332H-26.8499H-26.7334H-26.584H-26.4018H-26.1868H-25.9392H-25.6592H-25.3468H-25.0023H-24.6257H-24.2171H-23.7767H-23.3047H-22.8011H-22.2661H-21.6997H-21.1023H-20.4738H-19.8143H-19.1241H-18.4033H-17.652H-16.8702H-16.0583H-15.2161H-14.344H-13.4421H-12.5104H-11.549H-10.5582H-9.5381H-8.48874H-7.41029H-6.30288H-5.16664H-4.0017H-2.80819H-1.58624H-0.335983H0.942457H2.24895H3.58336H4.94557H6.33544H7.75285H9.19765H10.6697H12.169H13.6952H15.2483H16.8282H18.4347H20.0677H21.7271H23.4127H25.1244H26.8621H28.6257H30.4149H32.2298H34.0701H35.9357H37.8266H39.7425H41.6833H43.649H45.6393H47.6542H49.6936H51.7572H53.845H55.9568H58.0925H60.252H62.4351H64.6418H66.8718H69.1251H71.4015H73.7009H76.0232H78.3683H80.7359H83.126H85.5385H87.9731H90.4299H92.9086H95.4092H97.9314H100.475H103.041H105.627H108.235H110.864H113.513H116.184H118.875H121.587H124.319H127.072H129.844H132.637H135.449H138.281H141.133H144.005H146.895H149.805H152.734H155.682H158.649H161.635H164.639H167.662H170.703H173.762H176.839H179.934H183.047H186.178H189.326H192.492H195.675H198.875H202.092H205.326H208.577H211.845H215.129H218.429H221.746H225.079H228.427H231.792H235.173H238.569H241.98H245.407H248.849H252.306H255.778H259.265H262.767H266.283H269.814H273.359H276.918H280.491H284.078H287.679H291.294H294.922H298.563H302.218H305.886H309.567H313.261H316.968H320.687H324.419H328.163H331.919H335.688H339.468H343.26H347.064H350.88H354.707H358.546H362.395H366.256H370.128H374.01H377.903H381.807H385.721H389.645H393.58H397.524H401.479H405.443H409.417H413.401H417.393H421.396H425.407H429.427H433.456H437.494H441.54H445.595H449.659H453.73H457.81H461.897H465.993H470.096H474.207H478.325H482.45H486.583H490.722H494.869H499.022H503.182H507.349H511.522H515.701H519.887H524.078H528.276H532.479H536.687H540.902H545.121H549.346H553.576H557.811H562.051H566.295H570.544H574.798H579.056H583.318H587.584H591.854H596.128H600.406H604.687H608.971H613.259H617.55H621.845H626.142H630.441H634.744H639.049H643.356H647.666H651.977H656.291H660.607H664.924H669.243H673.564H677.885H682.208H686.532H690.858H695.183H699.51H703.837H708.165H712.493H716.821H721.149H725.477H729.805H734.133H738.46H742.786H747.112H751.437H755.761H760.084H764.406H768.726H773.045H777.362H781.677H785.991H790.302H794.612H798.919H803.223H807.525H811.825H816.122H820.415H824.706H828.993H833.278H837.558H841.835H846.109H850.379H854.644H858.906H863.163H867.416H871.665H875.909H880.148H884.382H888.611H892.836H897.054H901.268H905.476H909.678H913.875H918.066H922.25H926.429H930.601H934.767H938.926H943.078H947.224H951.363H955.495H959.619H963.736H967.846H971.948H976.043H980.129H984.208H988.278H992.341H996.394H1000.44H1004.48H1008.5H1012.52H1016.53H1020.53H1024.53H1028.51H1032.48H1036.44H1040.4H1044.34H1048.27H1052.2H1056.11H1060.01H1063.9H1067.79H1071.66H1075.51H1079.36H1083.2H1087.03H1090.84H1094.64H1098.43H1102.21H1105.98H1109.73H1113.48H1117.21H1120.92H1124.63H1128.32H1132H1135.67H1139.32H1142.96H1146.59H1150.2H1153.8H1157.38H1160.96H1164.51H1168.06H1171.58H1175.1H1178.6H1182.08H1185.55H1189.01H1192.45H1195.87H1199.28H1202.68H1206.06H1209.42H1212.77H1216.1H1219.41H1222.71H1225.99H1229.26H1232.51H1235.74H1238.95H1242.15H1245.33H1248.49H1251.64H1254.77H1257.88H1260.97H1264.05H1267.1H1270.14H1273.16H1276.17H1279.15H1282.11H1285.06H1287.99H1290.89H1293.78H1296.65H1299.5H1302.33H1305.14H1307.93H1310.7H1313.45H1316.18H1318.89H1321.58H1324.24H1326.89H1329.52H1332.12H1334.71H1337.27H1339.81H1342.33H1344.83H1347.3H1349.76H1352.19H1354.6H1356.99H1359.35H1361.69H1364.01H1366.31H1368.58H1370.83H1373.06H1375.26H1377.44H1379.6H1381.73H1383.84H1385.93H1387.99H1390.02H1392.03H1394.02H1395.98H1397.92H1399.83H1401.72H1403.58H1405.42H1407.23H1409.02H1410.78H1412.51H1414.22H1415.9H1417.56H1419.19H1420.79H1422.37H1423.92H1425.44H1426.94H1428.41H1429.85H1431.26H1432.65H1434.01H1435.34H1436.64H1437.92H1439.16H1440.38H1441.57H1442.73H1443.86H1444.97H1446.04H1447.09H1448.11H1449.09H1450.05H1450.98H1451.88H1452.74H1453.58H1454.39H1455.17H1455.92H1456.63H1457.32H1457.97H1458.6H1459.19H1459.76H1460.29H1460.79H1461.25H1461.69H1462.09H1462.47H1462.81H1463.12H1463.39H1463.64H1463.85H1464.02C1468.56 976.5 1472.06 974.099 1474.46 971.59C1476.86 969.08 1478.82 965.797 1480.48 962.29C1483.8 955.23 1486.65 945.588 1489.05 934.591C1493.89 912.475 1497.27 883.284 1498.72 854.355C1500.16 825.452 1499.69 796.356 1496.64 774.473C1495.12 763.621 1492.9 753.976 1489.65 746.934C1486.67 740.463 1481.11 732.839 1471.72 733.632C1470.33 733.749 1469.04 733.861 1467.84 733.966C1465.67 731.141 1462.26 728.277 1456.98 726.583C1448.45 723.846 1436.3 724.587 1418.69 731.231C1399.64 738.418 1352.45 747.422 1309.21 750.047C1287.62 751.358 1267.64 751.034 1253 748.316C1245.64 746.951 1240.18 745.076 1236.62 742.894C1233.16 740.78 1232.19 738.862 1231.98 737.288C1231.48 733.38 1229.78 729.955 1227 727.272C1224.33 724.7 1221.01 723.131 1217.63 722.158C1211.02 720.256 1202.57 720.183 1193.45 720.973C1175.02 722.57 1150.37 728.066 1124.12 734.201C1120.57 735.031 1116.98 735.873 1113.38 736.721C1090.03 742.208 1065.61 747.947 1042.47 752.064C1015.63 756.84 991.339 759.266 973.025 756.862C934.311 751.78 894.433 746.959 866.895 750.537C853.29 752.305 840.703 756.337 833.357 765.351C825.473 775.026 825.455 787.924 831.275 802.68C833.364 807.977 832.62 810.627 831.6 812.193C830.279 814.22 827.103 816.598 820.547 818.57C807.478 822.5 786.303 823.296 759.855 822.306C737.879 821.484 713.065 819.479 687.491 817.413C682.594 817.017 677.669 816.619 672.731 816.227C642.134 813.796 611.08 811.587 583.674 811.587C555.615 811.587 538.097 817.232 525.866 826.159C515.939 833.405 509.962 842.647 505.014 850.296C504.033 851.813 503.093 853.267 502.17 854.631C496.503 863.004 490.891 869.361 479.638 872.566C467.751 875.95 448.688 876.056 415.61 868.577C381.978 860.973 358.466 857.402 342.104 856.406C326.157 855.435 315.667 856.796 309.271 860.491C305.765 862.516 303.206 865.413 302.1 869.081C301.047 872.57 301.599 875.8 302.366 878.112C303.135 880.432 304.284 882.336 305.136 883.573C305.579 884.215 305.985 884.739 306.295 885.119C306.433 885.288 306.554 885.432 306.653 885.546C306.682 885.585 306.72 885.635 306.764 885.696C306.924 885.914 307.17 886.261 307.461 886.713C308.056 887.634 308.781 888.894 309.367 890.304C310.667 893.433 310.618 895.561 309.856 896.873C309.103 898.169 306.045 901.431 294.419 902.814C283.017 904.171 264.996 903.492 237.167 898.751C180.887 889.162 149.499 886.136 126.392 887.117C107.154 887.935 93.6967 891.563 77.2226 896.004C73.7714 896.934 70.1878 897.9 66.3909 898.884C42.4358 905.088 17.6051 921.625 -0.777088 936.015C-10.077 943.295 -17.9399 950.199 -23.4811 955.284C-26.2541 957.829 -28.452 959.924 -29.9647 961.391C-30.7212 962.125 -31.3067 962.702 -31.7075 963.101C-31.908 963.3 -32.0623 963.454 -32.1687 963.561L-32.2923 963.685L-32.3267 963.72L-32.3371 963.731L-32.3405 963.734Z" stroke="black" stroke-opacity="0.15" stroke-width="15"/>
<path d="M615.367 846.307C510.859 846.307 580.698 929.752 451.57 900.756C322.442 871.76 353.594 905.428 353.594 905.428C353.594 905.428 388.262 948.117 279.734 929.752C171.206 911.388 161.157 918.637 117.947 929.752C74.7371 940.867 26 990 26 990H1465C1491.63 990 1505.7 768.823 1473.04 771.562C1469.68 771.843 1466.93 772.087 1464.69 772.299C1464.94 773.03 1465 773.495 1465 773.495C1465 773.495 1445.18 774.143 1464.69 772.299C1463.34 768.339 1456.46 756.583 1423.8 768.823C1385.11 783.321 1238.4 803.619 1233.88 768.823C1229.35 734.028 1065.56 803.619 990.19 793.792C914.824 783.966 840.462 776.072 861.062 827.943C881.662 879.814 719.875 846.307 615.367 846.307Z" fill="#1B6CF8" fill-opacity="0.15"/>
<path d="M1465 990C1491.63 990 1505.7 768.823 1473.04 771.562C1469.68 771.843 1466.93 772.087 1464.69 772.299M1465 990C1438.37 990 26 990 26 990M1465 990H26M26 990C26 990 74.7371 940.867 117.947 929.752C161.157 918.637 171.206 911.388 279.734 929.752C388.262 948.117 353.594 905.428 353.594 905.428C353.594 905.428 322.442 871.76 451.57 900.756C580.698 929.752 510.859 846.307 615.367 846.307C719.875 846.307 881.662 879.814 861.062 827.943C840.462 776.072 914.824 783.966 990.19 793.792C1065.56 803.619 1229.35 734.028 1233.88 768.823C1238.4 803.619 1385.11 783.321 1423.8 768.823C1456.46 756.583 1463.34 768.339 1464.69 772.299M1464.69 772.299C1464.94 773.03 1465 773.495 1465 773.495C1465 773.495 1445.18 774.143 1464.69 772.299Z" stroke="black" stroke-opacity="0.15"/>
<path d="M694.631 883.922C601.956 883.922 663.888 950.75 549.382 927.528C434.875 904.305 462.499 931.269 462.499 931.269C462.499 931.269 493.242 965.457 397.003 950.75C300.764 936.042 291.853 941.848 253.536 950.75C215.218 959.651 172 999 172 999H1448.06C1471.67 999 1484.15 821.867 1455.19 824.06C1452.21 824.286 1449.77 824.481 1447.78 824.651C1448 825.236 1448.06 825.608 1448.06 825.608C1448.06 825.608 1430.49 826.127 1447.78 824.651C1446.58 821.48 1440.49 812.065 1411.52 821.867C1377.21 833.478 1247.11 849.733 1243.1 821.867C1239.09 794 1093.84 849.733 1027.01 841.864C960.179 833.994 894.238 827.672 912.505 869.214C930.773 910.756 787.306 883.922 694.631 883.922Z" fill="#4FACE2" fill-opacity="0.15"/>
<path d="M1448.06 999C1471.67 999 1484.15 821.867 1455.19 824.06C1452.21 824.286 1449.77 824.481 1447.78 824.651M1448.06 999C1424.44 999 172 999 172 999M1448.06 999H172M172 999C172 999 215.218 959.651 253.536 950.75C291.853 941.848 300.764 936.042 397.003 950.75C493.242 965.457 462.499 931.269 462.499 931.269C462.499 931.269 434.875 904.305 549.382 927.528C663.888 950.75 601.956 883.922 694.631 883.922C787.306 883.922 930.773 910.756 912.505 869.214C894.238 827.672 960.179 833.994 1027.01 841.864C1093.84 849.733 1239.09 794 1243.1 821.867C1247.11 849.733 1377.21 833.478 1411.52 821.867C1440.49 812.065 1446.58 821.48 1447.78 824.651M1447.78 824.651C1448 825.236 1448.06 825.608 1448.06 825.608C1448.06 825.608 1430.49 826.127 1447.78 824.651Z" stroke="black" stroke-opacity="0.15"/>
<path d="M1128.14 380.071L1121.07 373L1114 380.071L1121.07 387.142L1128.14 380.071Z" fill="#4CAF50"/>
<path d="M815.142 258.071L808.071 251L801 258.071L808.071 265.142L815.142 258.071Z" fill="#4CAF50"/>
<path d="M939.213 625.607L928.606 615L918 625.607L928.606 636.213L939.213 625.607Z" fill="#FFC107"/>
<path d="M1126.14 7.07107L1119.07 0L1112 7.07107L1119.07 14.1421L1126.14 7.07107Z" fill="#E91E63"/>
<path d="M273.142 463.071L266.071 456L259 463.071L266.071 470.142L273.142 463.071Z" fill="#E91E63"/>
<path d="M389.213 59.6066L378.606 49L368 59.6066L378.606 70.2132L389.213 59.6066Z" fill="#2196F3"/>
</svg>
