<svg width="1440" height="227" viewBox="0 0 1440 227" fill="none" xmlns="http://www.w3.org/2000/svg">
<path d="M583.674 106.087C475.388 106.087 547.752 193.144 413.956 162.893C280.159 132.641 312.437 167.766 312.437 167.766C312.437 167.766 348.359 212.303 235.908 193.144C123.456 173.985 113.044 181.548 68.2714 193.144C23.4991 204.741 -27 256 -27 256H1464.02C1491.62 256 1506.19 25.2483 1472.35 28.1054C1468.87 28.3993 1466.02 28.6541 1463.7 28.8746C1463.96 29.6369 1464.02 30.1222 1464.02 30.1222C1464.02 30.1222 1443.49 30.7985 1463.7 28.8746C1462.3 24.7437 1455.18 12.4788 1421.33 25.2483C1381.25 40.374 1229.23 61.5501 1224.54 25.2483C1219.86 -11.0535 1050.14 61.5501 972.049 51.2982C893.957 41.0463 816.907 32.8112 838.252 86.9277C859.597 141.044 691.961 106.087 583.674 106.087Z" fill="#4232C6" fill-opacity="0.15"/>
<path d="M-32.3405 250.734C-32.3417 250.735 -32.3428 250.736 -27 256L-32.3428 250.736L-44.917 263.5H-27H1464.02C1468.56 263.5 1472.06 261.099 1474.46 258.59C1476.86 256.08 1478.82 252.797 1480.48 249.29C1483.8 242.23 1486.65 232.588 1489.05 221.591C1493.89 199.475 1497.27 170.284 1498.72 141.355C1500.16 112.452 1499.69 83.356 1496.64 61.4726C1495.12 50.6205 1492.9 40.9757 1489.65 33.9344C1486.67 27.4631 1481.11 19.839 1471.72 20.632C1470.33 20.7494 1469.04 20.8608 1467.84 20.9664C1465.67 18.1409 1462.26 15.2774 1456.98 13.5828C1448.45 10.8463 1436.3 11.5868 1418.69 18.2312C1399.64 25.4183 1352.45 34.4221 1309.21 37.0474C1287.62 38.3578 1267.64 38.0336 1253 35.3161C1245.64 33.9507 1240.18 32.0761 1236.62 29.8938C1233.16 27.78 1232.19 25.8615 1231.98 24.2883C1231.48 20.3803 1229.78 16.9551 1227 14.2716C1224.33 11.7001 1221.01 10.1307 1217.63 9.15825C1211.02 7.25609 1202.57 7.18297 1193.45 7.97346C1175.02 9.57028 1150.37 15.0663 1124.12 21.2013C1120.57 22.0305 1116.98 22.8728 1113.38 23.7211C1090.03 29.2076 1065.61 34.9474 1042.47 39.0639C1015.63 43.8396 991.339 46.2663 973.025 43.862C934.311 38.7796 894.433 33.9594 866.895 37.5373C853.29 39.3051 840.703 43.3368 833.357 52.3506C825.473 62.0258 825.455 74.9241 831.275 89.6796C833.364 94.9766 832.62 97.6272 831.6 99.1932C830.279 101.22 827.103 103.598 820.547 105.57C807.478 109.5 786.303 110.296 759.855 109.306C737.879 108.484 713.065 106.479 687.491 104.413C682.594 104.017 677.669 103.619 672.731 103.227C642.134 100.796 611.08 98.587 583.674 98.587C555.615 98.587 538.097 104.232 525.866 113.159C515.939 120.405 509.962 129.647 505.014 137.296C504.033 138.813 503.093 140.267 502.17 141.631C496.503 150.004 490.891 156.361 479.638 159.566C467.751 162.95 448.688 163.056 415.61 155.577C381.978 147.973 358.466 144.402 342.104 143.406C326.157 142.435 315.667 143.796 309.271 147.491C305.765 149.516 303.206 152.413 302.1 156.081C301.047 159.57 301.599 162.8 302.366 165.112C303.135 167.432 304.284 169.336 305.136 170.573C305.579 171.215 305.985 171.739 306.295 172.119C306.433 172.288 306.554 172.432 306.653 172.546C306.682 172.585 306.72 172.635 306.764 172.695C306.924 172.914 307.17 173.261 307.461 173.713C308.056 174.634 308.781 175.894 309.367 177.304C310.667 180.433 310.618 182.561 309.856 183.873C309.103 185.169 306.045 188.431 294.419 189.814C283.017 191.171 264.996 190.492 237.167 185.751C180.887 176.162 149.499 173.136 126.392 174.117C107.154 174.935 93.6967 178.563 77.2225 183.004C73.7713 183.934 70.1878 184.9 66.3909 185.884C42.4358 192.088 17.6051 208.625 -0.777088 223.015C-10.077 230.295 -17.9399 237.199 -23.4811 242.284C-26.2541 244.829 -28.452 246.924 -29.9647 248.391C-30.7212 249.125 -31.3067 249.702 -31.7075 250.101C-31.908 250.3 -32.0623 250.454 -32.1687 250.561L-32.2923 250.685L-32.3267 250.72L-32.3371 250.731L-32.3405 250.734Z" stroke="black" stroke-opacity="0.15" stroke-width="15"/>
<path d="M615.367 133.307C510.859 133.307 580.698 216.752 451.57 187.756C322.442 158.76 353.594 192.428 353.594 192.428C353.594 192.428 388.262 235.117 279.734 216.752C171.206 198.388 161.157 205.637 117.947 216.752C74.7371 227.867 26 277 26 277H1465C1491.63 277 1505.7 55.8231 1473.04 58.5616C1469.68 58.8433 1466.93 59.0875 1464.69 59.2989C1464.94 60.0295 1465 60.4947 1465 60.4947C1465 60.4947 1445.18 61.143 1464.69 59.2989C1463.34 55.3394 1456.46 43.5834 1423.8 55.8231C1385.11 70.3212 1238.4 90.6186 1233.88 55.8231C1229.35 21.0276 1065.56 90.6186 990.19 80.7921C914.824 70.9656 840.462 63.0721 861.062 114.943C881.662 166.814 719.875 133.307 615.367 133.307Z" fill="#1B6CF8" fill-opacity="0.15"/>
<path d="M1465 277C1491.63 277 1505.7 55.8231 1473.04 58.5616C1469.68 58.8433 1466.93 59.0875 1464.69 59.2989M1465 277C1438.37 277 26 277 26 277M1465 277H26M26 277C26 277 74.7371 227.867 117.947 216.752C161.157 205.637 171.206 198.388 279.734 216.752C388.262 235.117 353.594 192.428 353.594 192.428C353.594 192.428 322.442 158.76 451.57 187.756C580.698 216.752 510.859 133.307 615.367 133.307C719.875 133.307 881.662 166.814 861.062 114.943C840.462 63.0721 914.824 70.9656 990.19 80.7921C1065.56 90.6186 1229.35 21.0276 1233.88 55.8231C1238.4 90.6186 1385.11 70.3212 1423.8 55.8231C1456.46 43.5834 1463.34 55.3394 1464.69 59.2989M1464.69 59.2989C1464.94 60.0295 1465 60.4947 1465 60.4947C1465 60.4947 1445.18 61.143 1464.69 59.2989Z" stroke="black" stroke-opacity="0.15"/>
<path d="M694.631 170.922C601.956 170.922 663.888 237.75 549.382 214.528C434.875 191.305 462.499 218.269 462.499 218.269C462.499 218.269 493.242 252.457 397.003 237.75C300.764 223.042 291.853 228.848 253.536 237.75C215.218 246.651 172 286 172 286H1448.06C1471.67 286 1484.15 108.867 1455.19 111.06C1452.21 111.286 1449.77 111.481 1447.78 111.651C1448 112.236 1448.06 112.608 1448.06 112.608C1448.06 112.608 1430.49 113.127 1447.78 111.651C1446.58 108.48 1440.49 99.0646 1411.52 108.867C1377.21 120.478 1247.11 136.733 1243.1 108.867C1239.09 81.0004 1093.84 136.733 1027.01 128.864C960.179 120.994 894.238 114.672 912.505 156.214C930.773 197.756 787.306 170.922 694.631 170.922Z" fill="#4FACE2" fill-opacity="0.15"/>
<path d="M1448.06 286C1471.67 286 1484.15 108.867 1455.19 111.06C1452.21 111.286 1449.77 111.481 1447.78 111.651M1448.06 286C1424.44 286 172 286 172 286M1448.06 286H172M172 286C172 286 215.218 246.651 253.536 237.75C291.853 228.848 300.764 223.042 397.003 237.75C493.242 252.457 462.499 218.269 462.499 218.269C462.499 218.269 434.875 191.305 549.382 214.528C663.888 237.75 601.956 170.922 694.631 170.922C787.306 170.922 930.773 197.756 912.505 156.214C894.238 114.672 960.179 120.994 1027.01 128.864C1093.84 136.733 1239.09 81.0004 1243.1 108.867C1247.11 136.733 1377.21 120.478 1411.52 108.867C1440.49 99.0646 1446.58 108.48 1447.78 111.651M1447.78 111.651C1448 112.236 1448.06 112.608 1448.06 112.608C1448.06 112.608 1430.49 113.127 1447.78 111.651Z" stroke="black" stroke-opacity="0.15"/>
</svg>
