<svg width="44" height="44" viewBox="0 0 44 44" fill="none" xmlns="http://www.w3.org/2000/svg">
<circle cx="22" cy="22" r="22" fill="#4B1360"/>
<path d="M23.0333 11.4332C23.3958 11.0708 23.8875 10.8672 24.4001 10.8672C24.9128 10.8672 25.4044 11.0708 25.767 11.4332L34.467 20.1332C34.8294 20.4958 35.0331 20.9875 35.0331 21.5001C35.0331 22.0128 34.8294 22.5044 34.467 22.867L25.767 31.567C25.4024 31.9191 24.914 32.114 24.4071 32.1096C23.9002 32.1052 23.4153 31.9019 23.0568 31.5434C22.6984 31.185 22.495 30.7001 22.4906 30.1932C22.4862 29.6862 22.6811 29.1979 23.0333 28.8332L28.2668 23.4334H9.90013C9.38738 23.4334 8.89563 23.2298 8.53306 22.8672C8.17049 22.5046 7.9668 22.0129 7.9668 21.5001C7.9668 20.9874 8.17049 20.4956 8.53306 20.133C8.89563 19.7705 9.38738 19.5668 9.90013 19.5668H28.2668L23.0333 14.167C22.6708 13.8044 22.4672 13.3128 22.4672 12.8001C22.4672 12.2875 22.6708 11.7958 23.0333 11.4332Z" fill="white"/>
</svg>
