<svg width="116" height="20" viewBox="0 0 116 20" fill="none" xmlns="http://www.w3.org/2000/svg">
<path d="M0.580256 19V0.818181H7.75355C9.12666 0.818181 10.2985 1.0638 11.2692 1.55504C12.2457 2.04036 12.9885 2.72988 13.4975 3.62358C14.0124 4.51136 14.2699 5.55599 14.2699 6.75746C14.2699 7.96484 14.0095 9.00355 13.4886 9.87358C12.9678 10.7377 12.2132 11.4006 11.2248 11.8622C10.2423 12.3239 9.05268 12.5547 7.6559 12.5547H2.85298V9.4652H7.03445C7.76835 9.4652 8.37796 9.36458 8.86328 9.16335C9.3486 8.96212 9.70964 8.66027 9.94638 8.25781C10.189 7.85535 10.3104 7.35523 10.3104 6.75746C10.3104 6.15376 10.189 5.64477 9.94638 5.23047C9.70964 4.81617 9.34564 4.50248 8.8544 4.28942C8.36908 4.07043 7.75651 3.96094 7.01669 3.96094H4.42436V19H0.580256ZM10.3991 10.7259L14.918 19H10.6744L6.2532 10.7259H10.3991ZM20.1204 19H16.0011L22.2777 0.818181H27.2315L33.4993 19H29.38L24.8256 4.97301H24.6836L20.1204 19ZM19.8629 11.8533H29.593V14.854H19.8629V11.8533ZM46.8893 6.69531C46.765 6.26326 46.5904 5.88151 46.3655 5.55007C46.1406 5.21271 45.8654 4.92862 45.5399 4.6978C45.2203 4.46106 44.8533 4.28054 44.439 4.15625C44.0306 4.03196 43.5779 3.96982 43.0807 3.96982C42.1515 3.96982 41.3347 4.20064 40.6304 4.66229C39.932 5.12393 39.3875 5.79569 38.9969 6.67756C38.6063 7.5535 38.411 8.62476 38.411 9.89134C38.411 11.1579 38.6033 12.2351 38.988 13.1229C39.3727 14.0107 39.9172 14.6883 40.6215 15.1559C41.3258 15.6175 42.1574 15.8484 43.1162 15.8484C43.9862 15.8484 44.729 15.6945 45.3445 15.3867C45.966 15.073 46.4395 14.6321 46.765 14.0639C47.0964 13.4957 47.2622 12.824 47.2622 12.0487L48.0434 12.1641H43.3559V9.26989H50.9642V11.5604C50.9642 13.1584 50.6269 14.5315 49.9521 15.6797C49.2774 16.822 48.3482 17.7038 47.1645 18.3253C45.9808 18.9408 44.6254 19.2486 43.0985 19.2486C41.3939 19.2486 39.8965 18.8728 38.6063 18.1211C37.316 17.3635 36.3099 16.2893 35.5878 14.8984C34.8717 13.5017 34.5136 11.8445 34.5136 9.92685C34.5136 8.45312 34.7267 7.1392 35.1528 5.98508C35.5848 4.82505 36.1885 3.84257 36.9639 3.03764C37.7392 2.23272 38.6418 1.62015 39.6716 1.19993C40.7014 0.77971 41.8171 0.569602 43.0186 0.569602C44.0484 0.569602 45.0072 0.720525 45.895 1.02237C46.7828 1.3183 47.5699 1.73852 48.2565 2.28303C48.949 2.82753 49.5142 3.47561 49.9521 4.22727C50.3901 4.97301 50.6713 5.79569 50.7955 6.69531H46.8893ZM75.6801 7.18359H71.7916C71.7206 6.68052 71.5756 6.23366 71.3566 5.84304C71.1376 5.4465 70.8565 5.10914 70.5132 4.83097C70.17 4.55279 69.7734 4.33972 69.3236 4.19176C68.8797 4.0438 68.3973 3.96982 67.8765 3.96982C66.9355 3.96982 66.1157 4.2036 65.4173 4.67116C64.719 5.13281 64.1774 5.80753 63.7927 6.69531C63.408 7.57718 63.2156 8.64844 63.2156 9.90909C63.2156 11.2053 63.408 12.2943 63.7927 13.1761C64.1833 14.058 64.7278 14.7238 65.4262 15.1737C66.1246 15.6235 66.9325 15.8484 67.8499 15.8484C68.3648 15.8484 68.8412 15.7803 69.2792 15.6442C69.7231 15.508 70.1167 15.3098 70.46 15.0494C70.8032 14.783 71.0873 14.4605 71.3122 14.0817C71.5431 13.7029 71.7029 13.2708 71.7916 12.7855L75.6801 12.8033C75.5795 13.6378 75.328 14.4427 74.9255 15.218C74.529 15.9875 73.9933 16.677 73.3186 17.2866C72.6498 17.8903 71.8508 18.3697 70.9216 18.7248C69.9983 19.074 68.9537 19.2486 67.7877 19.2486C66.166 19.2486 64.716 18.8816 63.4376 18.1477C62.1651 17.4138 61.1589 16.3514 60.4191 14.9606C59.6852 13.5697 59.3183 11.8859 59.3183 9.90909C59.3183 7.92637 59.6911 6.23958 60.4369 4.84872C61.1826 3.45786 62.1947 2.39844 63.4731 1.67045C64.7515 0.936553 66.1897 0.569602 67.7877 0.569602C68.8412 0.569602 69.8178 0.717566 70.7174 1.01349C71.623 1.30942 72.4249 1.74148 73.1233 2.30966C73.8217 2.87192 74.3899 3.56143 74.8279 4.3782C75.2718 5.19496 75.5558 6.13009 75.6801 7.18359ZM82.1476 11.1165V19H78.3657V0.818181H82.0411V7.76953H82.2009C82.5087 6.96461 83.0058 6.33428 83.6924 5.87855C84.3789 5.4169 85.2401 5.18608 86.2758 5.18608C87.2228 5.18608 88.0484 5.39323 88.7528 5.80753C89.463 6.21591 90.0134 6.80481 90.404 7.57422C90.8006 8.33771 90.9959 9.25213 90.99 10.3175V19H87.208V10.9922C87.2139 10.1518 87.0009 9.49775 86.5688 9.03018C86.1427 8.56262 85.5449 8.32884 84.7755 8.32884C84.2606 8.32884 83.8048 8.43833 83.4083 8.65731C83.0177 8.8763 82.7099 9.1959 82.485 9.61612C82.266 10.0304 82.1536 10.5305 82.1476 11.1165ZM97.8548 19.2575C96.9847 19.2575 96.2094 19.1065 95.5288 18.8047C94.8481 18.4969 94.3095 18.0442 93.913 17.4464C93.5224 16.8427 93.3271 16.091 93.3271 15.1914C93.3271 14.4338 93.4661 13.7976 93.7443 13.2827C94.0225 12.7678 94.4013 12.3535 94.8807 12.0398C95.3601 11.7261 95.9046 11.4893 96.5142 11.3295C97.1297 11.1697 97.7749 11.0573 98.4496 10.9922C99.2427 10.9093 99.8819 10.8324 100.367 10.7614C100.853 10.6844 101.205 10.572 101.424 10.424C101.643 10.276 101.752 10.0571 101.752 9.76705V9.71378C101.752 9.15152 101.575 8.7165 101.219 8.40874C100.87 8.10097 100.373 7.94709 99.728 7.94709C99.0473 7.94709 98.5058 8.09801 98.1033 8.39986C97.7009 8.69579 97.4345 9.06866 97.3043 9.51847L93.8065 9.23438C93.984 8.40578 94.3332 7.68963 94.854 7.08594C95.3749 6.47633 96.0466 6.00876 96.8693 5.68324C97.6979 5.3518 98.6567 5.18608 99.7457 5.18608C100.503 5.18608 101.228 5.27486 101.921 5.45241C102.619 5.62997 103.238 5.90518 103.776 6.27805C104.321 6.65092 104.75 7.13033 105.064 7.71626C105.377 8.29628 105.534 8.99171 105.534 9.80256V19H101.947V17.109H101.841C101.622 17.5352 101.329 17.911 100.962 18.2365C100.595 18.5561 100.154 18.8076 99.6392 18.9911C99.1243 19.1687 98.5295 19.2575 97.8548 19.2575ZM98.9379 16.6474C99.4942 16.6474 99.9854 16.5379 100.412 16.3189C100.838 16.094 101.172 15.7921 101.415 15.4134C101.657 15.0346 101.779 14.6055 101.779 14.1261V12.679C101.66 12.7559 101.498 12.8269 101.29 12.892C101.089 12.9512 100.861 13.0075 100.607 13.0607C100.352 13.1081 100.098 13.1525 99.8434 13.1939C99.5889 13.2294 99.3581 13.262 99.1509 13.2915C98.707 13.3567 98.3194 13.4602 97.9879 13.6023C97.6565 13.7443 97.399 13.9367 97.2156 14.1793C97.0321 14.4161 96.9403 14.712 96.9403 15.0671C96.9403 15.582 97.1268 15.9756 97.4996 16.2479C97.8784 16.5142 98.3578 16.6474 98.9379 16.6474ZM115.721 5.36364V8.20455H107.509V5.36364H115.721ZM109.374 2.09659H113.156V14.8097C113.156 15.1589 113.209 15.4311 113.316 15.6264C113.422 15.8158 113.57 15.949 113.759 16.0259C113.955 16.1029 114.18 16.1413 114.434 16.1413C114.612 16.1413 114.789 16.1265 114.967 16.0969C115.144 16.0614 115.28 16.0348 115.375 16.017L115.97 18.8313C115.781 18.8905 115.514 18.9586 115.171 19.0355C114.828 19.1184 114.41 19.1687 113.919 19.1864C113.008 19.2219 112.209 19.1006 111.522 18.8224C110.842 18.5443 110.312 18.1122 109.933 17.5263C109.554 16.9403 109.368 16.2005 109.374 15.3068V2.09659Z" fill="#9B27C6"/>
</svg>
