<svg width="744" height="1028" viewBox="0 0 744 1028" fill="none" xmlns="http://www.w3.org/2000/svg">
<path d="M357.813 876.528C258.723 876.528 324.942 956.36 202.508 928.619C80.074 900.878 109.611 933.089 109.611 933.089C109.611 933.089 142.482 973.93 39.5803 956.36C-63.3214 938.791 -72.8493 945.726 -113.819 956.36C-154.79 966.994 -201 1014 -201 1014H1163.4C1188.65 1014 1201.99 802.398 1171.02 805.018C1167.84 805.287 1165.23 805.521 1163.11 805.723C1163.34 806.422 1163.4 806.867 1163.4 806.867C1163.4 806.867 1144.61 807.487 1163.11 805.723C1161.83 801.935 1155.3 790.688 1124.34 802.398C1087.65 816.268 948.545 835.687 944.257 802.398C939.97 769.109 784.665 835.687 713.205 826.286C641.746 816.885 571.239 809.333 590.771 858.959C610.303 908.584 456.904 876.528 357.813 876.528Z" fill="#4232C6" fill-opacity="0.15"/>
<path d="M-206.346 1008.74C-206.347 1008.74 -206.348 1008.74 -201 1014L-206.348 1008.74L-218.89 1021.5H-201H-200.985H-200.939H-200.863H-200.756H-200.619H-200.453H-200.256H-200.029H-199.773H-199.487H-199.172H-198.827H-198.453H-198.05H-197.619H-197.158H-196.668H-196.15H-195.603H-195.028H-194.425H-193.793H-193.133H-192.446H-191.731H-190.987H-190.217H-189.419H-188.593H-187.741H-186.861H-185.955H-185.021H-184.061H-183.074H-182.061H-181.021H-179.955H-178.863H-177.744H-176.6H-175.431H-174.235H-173.014H-171.767H-170.496H-169.199H-167.876H-166.529H-165.157H-163.761H-162.34H-160.894H-159.424H-157.929H-156.411H-154.869H-153.302H-151.712H-150.098H-148.461H-146.8H-145.116H-143.409H-141.679H-139.926H-138.15H-136.351H-134.53H-132.686H-130.82H-128.931H-127.021H-125.088H-123.134H-121.158H-119.16H-117.141H-115.1H-113.038H-110.955H-108.851H-106.726H-104.58H-102.414H-100.226H-98.0188H-95.7909H-93.5428H-91.2745H-88.9863H-86.6783H-84.3505H-82.0031H-79.6361H-77.2498H-74.8443H-72.4195H-69.9758H-67.5131H-65.0317H-62.5316H-60.0129H-57.4758H-54.9204H-52.3468H-49.7551H-47.1454H-44.5179H-41.8727H-39.2098H-36.5295H-33.8318H-31.1169H-28.3849H-25.6358H-22.8698H-20.0871H-17.2877H-14.4717H-11.6394H-8.79074H-5.9259H-3.04501H-0.148178H2.7645H5.69287H8.63683H11.5963H14.571H17.5611H20.5662H23.5863H26.6213H29.6711H32.7355H35.8144H38.9077H42.0153H45.1371H48.2729H51.4227H54.5862H57.7635H60.9543H64.1586H67.3762H70.607H73.8509H77.1078H80.3776H83.6601H86.9552H90.2628H93.5829H96.9152H100.26H103.616H106.984H110.365H113.756H117.16H120.575H124.001H127.438H130.887H134.346H137.816H141.297H144.789H148.291H151.803H155.326H158.859H162.402H165.954H169.517H173.089H176.671H180.262H183.862H187.472H191.091H194.718H198.355H202H205.654H209.316H212.986H216.665H220.352H224.047H227.75H231.461H235.179H238.905H242.638H246.378H250.126H253.88H257.642H261.41H265.185H268.967H272.755H276.55H280.35H284.157H287.97H291.788H295.613H299.443H303.278H307.119H310.965H314.817H318.673H322.534H326.4H330.271H334.146H338.026H341.91H345.798H349.691H353.587H357.487H361.391H365.298H369.209H373.124H377.041H380.962H384.886H388.812H392.742H396.674H400.609H404.546H408.485H412.427H416.37H420.316H424.263H428.212H432.163H436.115H440.069H444.023H447.979H451.936H455.894H459.853H463.812H467.771H471.732H475.692H479.653H483.613H487.574H491.534H495.494H499.454H503.413H507.371H511.329H515.286H519.242H523.196H527.15H531.102H535.052H539.001H542.948H546.893H550.837H554.778H558.717H562.654H566.588H570.52H574.449H578.375H582.299H586.219H590.136H594.05H597.961H601.868H605.771H609.671H613.567H617.458H621.346H625.23H629.109H632.984H636.854H640.719H644.58H648.435H652.286H656.132H659.972H663.807H667.636H671.459H675.277H679.089H682.895H686.695H690.489H694.276H698.057H701.831H705.599H709.359H713.113H716.86H720.599H724.332H728.056H731.774H735.483H739.185H742.879H746.565H750.243H753.912H757.573H761.226H764.87H768.505H772.132H775.749H779.358H782.957H786.547H790.128H793.699H797.26H800.811H804.353H807.884H811.406H814.917H818.418H821.908H825.388H828.856H832.314H835.761H839.197H842.622H846.036H849.438H852.828H856.207H859.573H862.928H866.271H869.602H872.92H876.226H879.52H882.801H886.069H889.324H892.567H895.796H899.012H902.214H905.403H908.579H911.74H914.889H918.023H921.142H924.248H927.34H930.417H933.479H936.527H939.56H942.579H945.582H948.57H951.543H954.5H957.442H960.369H963.279H966.174H969.053H971.916H974.762H977.593H980.406H983.204H985.984H988.748H991.495H994.225H996.938H999.633H1002.31H1004.97H1007.61H1010.24H1012.85H1015.44H1018.01H1020.56H1023.1H1025.61H1028.11H1030.59H1033.05H1035.49H1037.91H1040.32H1042.7H1045.06H1047.41H1049.73H1052.04H1054.33H1056.59H1058.84H1061.06H1063.27H1065.45H1067.62H1069.76H1071.88H1073.98H1076.06H1078.12H1080.16H1082.18H1084.17H1086.15H1088.1H1090.03H1091.93H1093.82H1095.68H1097.52H1099.34H1101.14H1102.91H1104.66H1106.39H1108.09H1109.77H1111.43H1113.07H1114.68H1116.26H1117.83H1119.37H1120.88H1122.37H1123.84H1125.28H1126.7H1128.09H1129.46H1130.81H1132.13H1133.42H1134.69H1135.93H1137.15H1138.34H1139.51H1140.65H1141.76H1142.85H1143.92H1144.95H1145.96H1146.95H1147.9H1148.83H1149.74H1150.61H1151.46H1152.28H1153.08H1153.84H1154.58H1155.3H1155.98H1156.64H1157.26H1157.86H1158.44H1158.98H1159.49H1159.98H1160.44H1160.86H1161.26H1161.63H1161.98H1162.29H1162.57H1162.82H1163.04H1163.24H1163.4C1167.8 1021.5 1171.16 1019.17 1173.41 1016.8C1175.68 1014.43 1177.51 1011.35 1179.03 1008.11C1182.11 1001.57 1184.72 992.677 1186.93 982.576C1191.36 962.252 1194.46 935.448 1195.78 908.9C1197.1 882.376 1196.67 855.652 1193.87 835.532C1192.49 825.562 1190.44 816.647 1187.43 810.108C1184.69 804.146 1179.43 796.779 1170.39 797.545C1169.25 797.641 1168.18 797.733 1167.18 797.821C1165.12 795.233 1161.95 792.654 1157.15 791.109C1149.15 788.535 1137.86 789.267 1121.68 795.383C1104.34 801.941 1061.23 810.191 1021.69 812.597C1001.96 813.797 983.738 813.496 970.416 811.019C963.72 809.773 958.81 808.073 955.642 806.131C952.587 804.258 951.851 802.642 951.696 801.44C951.217 797.724 949.605 794.453 946.952 791.889C944.414 789.438 941.265 787.957 938.108 787.046C931.943 785.268 924.115 785.21 915.747 785.937C898.827 787.406 876.226 792.458 852.211 798.081C848.962 798.842 845.681 799.615 842.378 800.393C821.016 805.424 798.688 810.683 777.535 814.455C752.983 818.832 730.837 821.041 714.183 818.85C678.786 814.193 642.2 809.756 616.898 813.05C604.408 814.676 592.675 818.401 585.793 826.864C578.378 835.983 578.428 848.076 583.792 861.705C585.657 866.444 584.939 868.654 584.146 869.872C583.057 871.547 580.323 873.668 574.382 875.459C562.538 879.028 543.263 879.766 519.057 878.858C498.962 878.105 476.272 876.268 452.87 874.373C448.388 874.01 443.88 873.645 439.359 873.285C411.361 871.056 382.92 869.028 357.813 869.028C332.05 869.028 315.87 874.222 304.532 882.515C295.345 889.235 289.803 897.825 285.278 904.839C284.385 906.223 283.532 907.545 282.699 908.779C277.547 916.408 272.519 922.093 262.434 924.971C251.716 928.029 234.402 928.156 204.165 921.305C173.374 914.328 151.821 911.045 136.798 910.128C122.19 909.237 112.42 910.469 106.389 913.96C103.065 915.885 100.605 918.66 99.54 922.197C98.5286 925.556 99.0625 928.653 99.7884 930.846C100.517 933.048 101.602 934.847 102.401 936.009C102.817 936.614 103.199 937.109 103.491 937.467C103.615 937.62 103.725 937.75 103.817 937.857C103.84 937.888 103.868 937.926 103.901 937.971C104.041 938.162 104.259 938.471 104.518 938.873C105.049 939.696 105.693 940.818 106.211 942.068C107.375 944.876 107.247 946.599 106.695 947.552C106.155 948.484 103.609 951.429 93.0461 952.689C82.7026 953.922 66.2831 953.311 40.8425 948.967C-10.6631 940.173 -39.4434 937.388 -60.6629 938.291C-78.3442 939.044 -90.7335 942.391 -105.814 946.466C-108.969 947.318 -112.241 948.202 -115.704 949.101C-137.76 954.826 -160.569 970.061 -177.403 983.267C-185.929 989.956 -193.137 996.297 -198.216 1000.97C-200.759 1003.31 -202.774 1005.23 -204.162 1006.58C-204.856 1007.26 -205.394 1007.79 -205.762 1008.15C-205.946 1008.34 -206.089 1008.48 -206.187 1008.58L-206.301 1008.69L-206.333 1008.73L-206.343 1008.74L-206.346 1008.74ZM103.743 937.76C103.745 937.763 103.75 937.769 103.758 937.779L103.757 937.778L103.749 937.768L103.743 937.76Z" stroke="black" stroke-opacity="0.15" stroke-width="15"/>
<path d="M387.114 901.126C291.517 901.126 355.401 977.708 237.284 951.096C119.166 924.485 147.661 955.384 147.661 955.384C147.661 955.384 179.374 994.562 80.0994 977.708C-19.1748 960.854 -28.3669 967.507 -67.8927 977.708C-107.419 987.909 -152 1033 -152 1033H1164.3C1188.66 1033 1201.53 830.015 1171.66 832.528C1168.58 832.787 1166.06 833.011 1164.02 833.205C1164.25 833.876 1164.3 834.302 1164.3 834.302C1164.3 834.302 1146.18 834.897 1164.02 833.205C1162.78 829.571 1156.49 818.782 1126.61 830.015C1091.23 843.321 957.021 861.949 952.885 830.015C948.749 798.082 798.918 861.949 729.978 852.93C661.037 843.912 593.016 836.668 611.86 884.273C630.703 931.877 482.711 901.126 387.114 901.126Z" fill="#1B6CF8" fill-opacity="0.15"/>
<path d="M1164.3 1033C1188.66 1033 1201.53 830.015 1171.66 832.528C1168.58 832.787 1166.06 833.011 1164.02 833.205M1164.3 1033C1139.94 1033 -152 1033 -152 1033M1164.3 1033H-152M-152 1033C-152 1033 -107.419 987.909 -67.8927 977.708C-28.3669 967.507 -19.1748 960.854 80.0994 977.708C179.374 994.562 147.661 955.384 147.661 955.384C147.661 955.384 119.166 924.485 237.284 951.096C355.401 977.708 291.517 901.126 387.114 901.126C482.711 901.126 630.703 931.877 611.86 884.273C593.016 836.668 661.037 843.912 729.978 852.93C798.918 861.949 948.749 798.082 952.885 830.015C957.021 861.949 1091.23 843.321 1126.61 830.015C1156.49 818.782 1162.78 829.571 1164.02 833.205M1164.02 833.205C1164.25 833.876 1164.3 834.302 1164.3 834.302C1164.3 834.302 1146.18 834.897 1164.02 833.205Z" stroke="black" stroke-opacity="0.15"/>
<path d="M459.408 935.874C374.576 935.874 431.267 996.923 326.449 975.709C221.632 954.495 246.918 979.127 246.918 979.127C246.918 979.127 275.06 1010.36 186.964 996.923C98.8687 983.487 90.7117 988.791 55.6366 996.923C20.5615 1005.05 -19 1041 -19 1041H1149.08C1170.7 1041 1182.12 879.187 1155.61 881.19C1152.88 881.396 1150.65 881.575 1148.83 881.73C1149.03 882.264 1149.08 882.604 1149.08 882.604C1149.08 882.604 1133 883.079 1148.83 881.73C1147.74 878.833 1142.15 870.232 1115.64 879.187C1084.24 889.793 965.143 904.643 961.472 879.187C957.802 853.73 824.842 904.643 763.665 897.454C702.487 890.265 642.125 884.49 658.847 922.439C675.569 960.388 544.241 935.874 459.408 935.874Z" fill="#4FACE2" fill-opacity="0.15"/>
<path d="M1149.08 1041C1170.7 1041 1182.12 879.187 1155.61 881.19C1152.88 881.396 1150.65 881.575 1148.83 881.73M1149.08 1041C1127.47 1041 -19 1041 -19 1041M1149.08 1041H-19M-19 1041C-19 1041 20.5615 1005.05 55.6366 996.923C90.7117 988.791 98.8687 983.487 186.964 996.923C275.06 1010.36 246.918 979.127 246.918 979.127C246.918 979.127 221.632 954.495 326.449 975.709C431.267 996.923 374.576 935.874 459.408 935.874C544.241 935.874 675.569 960.388 658.847 922.439C642.125 884.49 702.487 890.265 763.665 897.454C824.842 904.643 957.802 853.73 961.472 879.187C965.143 904.643 1084.24 889.793 1115.64 879.187C1142.15 870.232 1147.74 878.833 1148.83 881.73M1148.83 881.73C1149.03 882.264 1149.08 882.604 1149.08 882.604C1149.08 882.604 1133 883.079 1148.83 881.73Z" stroke="black" stroke-opacity="0.15"/>
<path d="M668.142 438.071L661.071 431L654 438.071L661.071 445.142L668.142 438.071Z" fill="#4CAF50"/>
<path d="M398.142 279.071L391.071 272L384 279.071L391.071 286.142L398.142 279.071Z" fill="#4CAF50"/>
<path d="M482.213 689.607L471.606 679L461 689.607L471.606 700.213L482.213 689.607Z" fill="#FFC107"/>
<path d="M636.142 7.07107L629.071 0L622 7.07107L629.071 14.1421L636.142 7.07107Z" fill="#E91E63"/>
<path d="M83.1424 530.071L76.0713 523L69.0002 530.071L76.0713 537.142L83.1424 530.071Z" fill="#E91E63"/>
<path d="M153.213 114.607L142.606 104L132 114.607L142.606 125.213L153.213 114.607Z" fill="#2196F3"/>
</svg>
