<svg width="402" height="800" viewBox="0 0 402 800" fill="none" xmlns="http://www.w3.org/2000/svg">
<path d="M145.826 665.701C109.683 665.701 133.836 736.141 89.1788 711.664C44.5212 687.187 55.2946 715.608 55.2946 715.608C55.2946 715.608 67.2844 751.644 29.7512 736.142C-7.78197 720.639 -11.2573 726.759 -26.201 736.142C-41.1448 745.524 -58 787 -58 787H439.662C448.872 787 453.737 600.292 442.443 602.604C441.281 602.842 440.329 603.048 439.555 603.226C439.641 603.843 439.662 604.236 439.662 604.236C439.662 604.236 432.809 604.783 439.555 603.226C439.088 599.884 436.709 589.96 425.414 600.292C412.034 612.531 361.294 629.665 359.731 600.292C358.167 570.919 301.519 629.665 275.455 621.37C249.39 613.075 223.673 606.412 230.797 650.199C237.921 693.986 181.969 665.701 145.826 665.701Z" fill="#4232C6" fill-opacity="0.15"/>
<path d="M-64.9473 784.174C-64.9478 784.175 -64.9482 784.176 -58 787L-64.9482 784.176L-69.1436 794.5H-58H-57.9944H-57.9777H-57.9499H-57.911H-57.8612H-57.8003H-57.7286H-57.6459H-57.5525H-57.4482H-57.3332H-57.2075H-57.0711H-56.9242H-56.7666H-56.5985H-56.4199H-56.2309H-56.0315H-55.8217H-55.6016H-55.3713H-55.1307H-54.8799H-54.619H-54.3479H-54.0669H-53.7758H-53.4747H-53.1638H-52.8429H-52.5122H-52.1717H-51.8215H-51.4615H-51.0919H-50.7126H-50.3238H-49.9254H-49.5176H-49.1003H-48.6736H-48.2375H-47.7921H-47.3375H-46.8736H-46.4005H-45.9182H-45.4269H-44.9265H-44.4171H-43.8987H-43.3714H-42.8352H-42.2901H-41.7362H-41.1736H-40.6023H-40.0223H-39.4337H-38.8365H-38.2307H-37.6165H-36.9938H-36.3627H-35.7232H-35.0754H-34.4193H-33.755H-33.0825H-32.4018H-31.713H-31.0162H-30.3113H-29.5985H-28.8777H-28.149H-27.4125H-26.6682H-25.9161H-25.1563H-24.3888H-23.6137H-22.831H-22.0408H-21.243H-20.4378H-19.6252H-18.8052H-17.9778H-17.1432H-16.3014H-15.4523H-14.5961H-13.7327H-12.8623H-11.9849H-11.1005H-10.2092H-9.31091H-8.4058H-7.49389H-6.57521H-5.64981H-4.71772H-3.779H-2.83368H-1.88181H-0.923435H0.0414047H1.01267H1.99031H2.97428H3.96455H4.96106H5.96378H6.97266H7.98766H9.00874H10.0358H11.0689H12.108H13.1529H14.2037H15.2603H16.3227H17.3909H18.4647H19.5441H20.6292H21.7197H22.8159H23.9174H25.0245H26.1369H27.2546H28.3776H29.5059H30.6394H31.7781H32.9218H34.0707H35.2246H36.3835H37.5474H38.7161H39.8897H41.0682H42.2514H43.4393H44.632H45.8293H47.0311H48.2376H49.4486H50.664H51.8839H53.1082H54.3368H55.5697H56.8068H58.0482H59.2938H60.5435H61.7972H63.0551H64.3169H65.5826H66.8523H68.1259H69.4032H70.6844H71.9693H73.2579H74.5501H75.846H77.1454H78.4483H79.7547H81.0646H82.3779H83.6945H85.0144H86.3375H87.6639H88.9935H90.3262H91.662H93.0008H94.3427H95.6875H97.0352H98.3858H99.7392H101.095H102.454H103.816H105.18H106.547H107.917H109.289H110.663H112.04H113.42H114.801H116.185H117.572H118.96H120.351H121.744H123.139H124.536H125.935H127.336H128.738H130.143H131.55H132.958H134.368H135.78H137.194H138.609H140.025H141.444H142.863H144.285H145.707H147.131H148.556H149.983H151.411H152.84H154.27H155.701H157.133H158.566H160.001H161.436H162.872H164.309H165.746H167.185H168.624H170.064H171.504H172.945H174.387H175.829H177.271H178.714H180.157H181.601H183.045H184.489H185.933H187.378H188.822H190.267H191.711H193.156H194.601H196.045H197.489H198.933H200.377H201.821H203.264H204.707H206.149H207.591H209.033H210.474H211.914H213.354H214.793H216.231H217.669H219.105H220.541H221.976H223.411H224.844H226.276H227.707H229.137H230.566H231.993H233.419H234.845H236.268H237.691H239.112H240.531H241.949H243.366H244.781H246.194H247.606H249.016H250.424H251.83H253.235H254.637H256.038H257.437H258.833H260.228H261.621H263.011H264.399H265.785H267.169H268.55H269.929H271.306H272.68H274.052H275.421H276.788H278.152H279.513H280.872H282.228H283.581H284.931H286.278H287.623H288.964H290.303H291.638H292.97H294.299H295.625H296.948H298.268H299.584H300.897H302.206H303.512H304.815H306.113H307.409H308.701H309.989H311.273H312.554H313.831H315.104H316.373H317.638H318.9H320.157H321.41H322.659H323.904H325.145H326.382H327.614H328.842H330.066H331.285H332.5H333.711H334.916H336.118H337.314H338.506H339.694H340.876H342.054H343.227H344.395H345.559H346.717H347.87H349.018H350.161H351.299H352.432H353.56H354.682H355.799H356.911H358.017H359.118H360.214H361.304H362.388H363.467H364.54H365.607H366.669H367.725H368.775H369.819H370.857H371.89H372.916H373.936H374.95H375.958H376.96H377.956H378.946H379.929H380.906H381.876H382.84H383.798H384.749H385.693H386.631H387.562H388.487H389.405H390.316H391.22H392.117H393.008H393.891H394.768H395.637H396.5H397.355H398.203H399.044H399.878H400.704H401.523H402.335H403.139H403.936H404.725H405.507H406.281H407.048H407.807H408.558H409.301H410.036H410.764H411.484H412.196H412.9H413.595H414.283H414.963H415.634H416.298H416.953H417.599H418.238H418.868H419.489H420.103H420.707H421.303H421.891H422.47H423.04H423.602H424.154H424.698H425.233H425.759H426.277H426.785H427.284H427.774H428.255H428.727H429.19H429.644H430.088H430.523H430.948H431.364H431.771H432.168H432.556H432.934H433.302H433.661H434.01H434.349H434.679H434.998H435.308H435.608H435.897H436.177H436.447H436.707H436.956H437.195H437.424H437.643H437.852H438.05H438.238H438.415H438.582H438.738H438.883H439.018H439.143H439.256H439.359H439.451H439.533H439.603H439.662C443.354 794.5 445.566 792.166 446.398 791.113C447.338 789.924 447.931 788.622 448.313 787.654C449.107 785.639 449.729 783.096 450.251 780.414C451.318 774.933 452.246 767.346 453.04 758.536C454.635 740.841 455.76 717.39 456.24 694.09C456.72 670.798 456.56 647.461 455.556 630.01C455.057 621.339 454.336 613.84 453.311 608.461C452.816 605.861 452.156 603.222 451.163 601.106C450.682 600.083 449.852 598.579 448.432 597.319C447.544 596.532 446.353 595.796 444.934 595.395C444.145 593.851 442.955 592.117 441.152 590.713C438.175 588.396 434.381 587.643 430.445 588.661C426.93 589.57 423.589 591.797 420.352 594.758C417.882 597.017 413.057 599.986 406.76 602.697C400.576 605.36 393.563 607.518 387.049 608.476C380.345 609.463 375.123 609.038 371.849 607.565C370.339 606.886 369.346 606.035 368.672 605.035C367.992 604.027 367.356 602.449 367.22 599.893C366.969 595.178 365.505 590.084 361.022 586.955C356.728 583.958 351.72 584.245 348.026 585.021C340.705 586.558 331.558 591.601 323.084 596.401C321.874 597.087 320.662 597.777 319.451 598.467C311.628 602.922 303.81 607.375 296.429 610.559C287.531 614.396 281.402 615.392 277.729 614.223C271.229 612.154 264.327 610.046 257.847 608.843C251.49 607.664 244.591 607.158 238.427 609.1C231.69 611.222 226.558 616.04 223.995 623.665C221.608 630.764 221.536 639.979 223.394 651.403C224.985 661.18 222.636 663.979 221.19 665.034C218.811 666.768 213.909 667.69 205.214 666.901C198.241 666.268 190.353 664.725 181.809 663.052C180.153 662.728 178.473 662.4 176.771 662.072C166.596 660.112 155.668 658.201 145.826 658.201C140.019 658.201 134.988 659.639 130.755 662.394C126.587 665.107 123.644 668.802 121.478 672.635C118.052 678.696 116.043 686.24 114.406 692.39C114.082 693.603 113.774 694.762 113.472 695.845C112.474 699.418 111.533 702.335 110.43 704.645C109.325 706.957 108.321 708.088 107.527 708.636C106.649 709.242 103.366 710.888 92.7836 705.087C81.3562 698.824 72.7277 695.507 66.1394 694.534C59.4389 693.546 53.1325 694.853 49.3865 700.098C46.2028 704.557 46.5044 709.833 46.8783 712.566C47.0945 714.146 47.4293 715.516 47.7049 716.485C47.8447 716.977 47.9747 717.385 48.0759 717.685C48.1223 717.824 48.1631 717.94 48.1964 718.034C48.2078 718.07 48.2228 718.119 48.2411 718.179C48.2981 718.368 48.3855 718.667 48.4895 719.057C48.699 719.843 48.9668 720.964 49.1894 722.263C49.665 725.038 49.7999 727.872 49.3043 729.941C48.8947 731.65 48.3542 732.02 47.4979 732.267C45.8166 732.752 41.497 732.878 32.6143 729.21C13.8467 721.458 2.02394 718.372 -7.46417 719.349C-15.5646 720.183 -21.5206 724.109 -27.0295 727.74C-28.0954 728.442 -29.1445 729.134 -30.1892 729.79C-35.2234 732.951 -39.7763 738.311 -43.5982 743.717C-47.5394 749.292 -51.2178 755.669 -54.3396 761.593C-57.4738 767.541 -60.1167 773.167 -61.9736 777.298C-62.9038 779.367 -63.641 781.071 -64.1484 782.264C-64.4022 782.861 -64.5988 783.331 -64.7336 783.656C-64.801 783.818 -64.8529 783.944 -64.8889 784.031L-64.9307 784.134L-64.9425 784.163L-64.9461 784.171L-64.9473 784.174Z" stroke="black" stroke-opacity="0.15" stroke-width="15"/>
<path d="M155.992 688.055C121.061 688.055 144.404 755.967 101.244 732.368C58.0836 708.77 68.4958 736.171 68.4958 736.171C68.4958 736.171 80.0836 770.913 43.8089 755.967C7.53419 741.021 4.17542 746.921 -10.2673 755.967C-24.71 765.013 -41 805 -41 805H439.975C448.876 805 453.578 624.995 442.662 627.223C441.54 627.453 440.619 627.651 439.872 627.823C439.955 628.418 439.975 628.797 439.975 628.797C439.975 628.797 433.352 629.324 439.872 627.823C439.42 624.601 437.121 615.033 426.205 624.995C413.273 636.794 364.235 653.313 362.724 624.995C361.212 596.676 306.464 653.313 281.274 645.316C256.083 637.318 231.228 630.894 238.114 673.11C244.999 715.325 190.923 688.055 155.992 688.055Z" fill="#1B6CF8" fill-opacity="0.15"/>
<path d="M439.975 805C448.876 805 453.578 624.995 442.662 627.223C441.54 627.453 440.619 627.651 439.872 627.823M439.975 805C431.075 805 -41 805 -41 805M439.975 805H-41M-41 805C-41 805 -24.71 765.013 -10.2673 755.967C4.17542 746.921 7.53419 741.021 43.8089 755.967C80.0836 770.913 68.4958 736.171 68.4958 736.171C68.4958 736.171 58.0836 708.77 101.244 732.368C144.404 755.967 121.061 688.055 155.992 688.055C190.923 688.055 244.999 715.325 238.114 673.11C231.228 630.894 256.083 637.318 281.274 645.316C306.464 653.313 361.212 596.676 362.724 624.995C364.235 653.313 413.273 636.794 426.205 624.995C437.121 615.033 439.42 624.601 439.872 627.823M439.872 627.823C439.955 628.418 439.975 628.797 439.975 628.797C439.975 628.797 433.352 629.324 439.872 627.823Z" stroke="black" stroke-opacity="0.15"/>
<path d="M183.076 718.071C152.209 718.071 172.837 772.617 134.697 753.663C96.5576 734.709 105.759 756.717 105.759 756.717C105.759 756.717 115.998 784.622 83.9434 772.617C51.8884 760.613 48.9203 765.351 36.1577 772.617C23.3951 779.883 9 812 9 812H434.025C441.891 812 446.046 667.421 436.4 669.211C435.407 669.395 434.594 669.555 433.934 669.693C434.007 670.171 434.025 670.475 434.025 670.475C434.025 670.475 428.173 670.899 433.934 669.693C433.535 667.105 431.503 659.42 421.856 667.421C410.429 676.898 367.096 690.166 365.76 667.421C364.424 644.676 316.045 690.166 293.785 683.743C271.524 677.319 249.561 672.16 255.645 706.067C261.73 739.974 213.944 718.071 183.076 718.071Z" fill="#4FACE2" fill-opacity="0.15"/>
<path d="M434.025 812C441.891 812 446.046 667.421 436.4 669.211C435.407 669.395 434.594 669.555 433.934 669.693M434.025 812C426.16 812 9 812 9 812M434.025 812H9M9 812C9 812 23.3951 779.883 36.1577 772.617C48.9203 765.351 51.8884 760.613 83.9434 772.617C115.998 784.622 105.759 756.717 105.759 756.717C105.759 756.717 96.5576 734.709 134.697 753.663C172.837 772.617 152.209 718.071 183.076 718.071C213.944 718.071 261.73 739.974 255.645 706.067C249.561 672.16 271.524 677.319 293.785 683.743C316.045 690.166 364.424 644.676 365.76 667.421C367.096 690.166 410.429 676.898 421.856 667.421C431.503 659.42 433.535 667.105 433.934 669.693M433.934 669.693C434.007 670.171 434.025 670.475 434.025 670.475C434.025 670.475 428.173 670.899 433.934 669.693Z" stroke="black" stroke-opacity="0.15"/>
<path d="M61.4242 395.212L57.2119 391L52.9996 395.212L57.2119 399.425L61.4242 395.212Z" fill="#E91E63"/>
<path d="M371.424 297.212L367.212 293L363 297.212L367.212 301.425L371.424 297.212Z" fill="#4CAF50"/>
<path d="M344.424 4.21232L340.212 0L336 4.21232L340.212 8.42464L344.424 4.21232Z" fill="#E91E63"/>
</svg>
