<svg width="49" height="49" viewBox="0 0 49 49" fill="none" xmlns="http://www.w3.org/2000/svg">
<g clip-path="url(#clip0_44_863)">
<path d="M36.2457 28.5835C36.8489 28.5835 37.4463 28.7023 38.0036 28.9332C38.561 29.164 39.0674 29.5024 39.494 29.929C39.9205 30.3555 40.2589 30.862 40.4898 31.4193C40.7206 31.9766 40.8394 32.574 40.8394 33.1772V35.025C40.8394 36.1282 40.601 37.2185 40.1404 38.221C39.6798 39.2236 39.008 40.1147 38.171 40.8335C34.9737 43.5775 30.4004 44.9189 24.5 44.9189C18.5996 44.9189 14.0303 43.5775 10.8392 40.8355C10.0032 40.1166 9.33227 39.2256 8.87242 38.2235C8.41257 37.2213 8.17461 36.1317 8.1748 35.029V33.1772C8.1748 31.9589 8.65879 30.7905 9.52028 29.929C10.3818 29.0675 11.5502 28.5835 12.7686 28.5835H36.2457Z" fill="url(#paint0_radial_44_863)"/>
<path d="M36.2457 28.5835C36.8489 28.5835 37.4463 28.7023 38.0036 28.9332C38.561 29.164 39.0674 29.5024 39.494 29.929C39.9205 30.3555 40.2589 30.862 40.4898 31.4193C40.7206 31.9766 40.8394 32.574 40.8394 33.1772V35.025C40.8394 36.1282 40.601 37.2185 40.1404 38.221C39.6798 39.2236 39.008 40.1147 38.171 40.8335C34.9737 43.5775 30.4004 44.9189 24.5 44.9189C18.5996 44.9189 14.0303 43.5775 10.8392 40.8355C10.0032 40.1166 9.33227 39.2256 8.87242 38.2235C8.41257 37.2213 8.17461 36.1317 8.1748 35.029V33.1772C8.1748 31.9589 8.65879 30.7905 9.52028 29.929C10.3818 29.0675 11.5502 28.5835 12.7686 28.5835H36.2457Z" fill="url(#paint1_linear_44_863)"/>
<path d="M36.2457 28.5835C36.8489 28.5835 37.4463 28.7023 38.0036 28.9332C38.561 29.164 39.0674 29.5024 39.494 29.929C39.9205 30.3555 40.2589 30.862 40.4898 31.4193C40.7206 31.9766 40.8394 32.574 40.8394 33.1772V35.025C40.8394 36.1282 40.601 37.2185 40.1404 38.221C39.6798 39.2236 39.008 40.1147 38.171 40.8335C34.9737 43.5775 30.4004 44.9189 24.5 44.9189C18.5996 44.9189 14.0303 43.5775 10.8392 40.8355C10.0032 40.1166 9.33227 39.2256 8.87242 38.2235C8.41257 37.2213 8.17461 36.1317 8.1748 35.029V33.1772C8.1748 31.9589 8.65879 30.7905 9.52028 29.929C10.3818 29.0675 11.5502 28.5835 12.7686 28.5835H36.2457Z" fill="url(#paint2_radial_44_863)"/>
<path d="M36.2457 28.5835C36.8489 28.5835 37.4463 28.7023 38.0036 28.9332C38.561 29.164 39.0674 29.5024 39.494 29.929C39.9205 30.3555 40.2589 30.862 40.4898 31.4193C40.7206 31.9766 40.8394 32.574 40.8394 33.1772V35.025C40.8394 36.1282 40.601 37.2185 40.1404 38.221C39.6798 39.2236 39.008 40.1147 38.171 40.8335C34.9737 43.5775 30.4004 44.9189 24.5 44.9189C18.5996 44.9189 14.0303 43.5775 10.8392 40.8355C10.0032 40.1166 9.33227 39.2256 8.87242 38.2235C8.41257 37.2213 8.17461 36.1317 8.1748 35.029V33.1772C8.1748 31.9589 8.65879 30.7905 9.52028 29.929C10.3818 29.0675 11.5502 28.5835 12.7686 28.5835H36.2457Z" fill="url(#paint3_radial_44_863)"/>
<path d="M36.2457 28.5835C36.8489 28.5835 37.4463 28.7023 38.0036 28.9332C38.561 29.164 39.0674 29.5024 39.494 29.929C39.9205 30.3555 40.2589 30.862 40.4898 31.4193C40.7206 31.9766 40.8394 32.574 40.8394 33.1772V35.025C40.8394 36.1282 40.601 37.2185 40.1404 38.221C39.6798 39.2236 39.008 40.1147 38.171 40.8335C34.9737 43.5775 30.4004 44.9189 24.5 44.9189C18.5996 44.9189 14.0303 43.5775 10.8392 40.8355C10.0032 40.1166 9.33227 39.2256 8.87242 38.2235C8.41257 37.2213 8.17461 36.1317 8.1748 35.029V33.1772C8.1748 31.9589 8.65879 30.7905 9.52028 29.929C10.3818 29.0675 11.5502 28.5835 12.7686 28.5835H36.2457Z" fill="url(#paint4_radial_44_863)"/>
<path d="M24.5001 5.10425L24.2919 5.11854C23.9253 5.16886 23.5893 5.35023 23.3461 5.6291C23.1029 5.90797 22.9689 6.26547 22.9689 6.6355L22.9546 10.2084H26.0171L26.0314 6.6355L26.0171 6.42725C25.9668 6.06066 25.7854 5.72469 25.5065 5.48148C25.2277 5.23827 24.8702 5.10426 24.5001 5.10425Z" fill="url(#paint5_linear_44_863)"/>
<path d="M36.75 12.7605C36.75 11.5422 36.266 10.3737 35.4045 9.51223C34.543 8.65073 33.3746 8.16675 32.1562 8.16675H16.8438C15.6254 8.16675 14.457 8.65073 13.5955 9.51223C12.734 10.3737 12.25 11.5422 12.25 12.7605V19.9063C12.25 21.1247 12.734 22.2931 13.5955 23.1546C14.457 24.0161 15.6254 24.5001 16.8438 24.5001H32.1562C33.3746 24.5001 34.543 24.0161 35.4045 23.1546C36.266 22.2931 36.75 21.1247 36.75 19.9063V12.7605Z" fill="url(#paint6_radial_44_863)"/>
<path d="M29.0774 13.2708C28.7363 13.2611 28.3967 13.32 28.0788 13.4439C27.7609 13.5677 27.471 13.7541 27.2263 13.9919C26.9816 14.2298 26.7872 14.5143 26.6544 14.8286C26.5216 15.1429 26.4531 15.4806 26.4531 15.8219C26.4531 16.1631 26.5216 16.5008 26.6544 16.8151C26.7872 17.1295 26.9816 17.414 27.2263 17.6518C27.471 17.8896 27.7609 18.076 28.0788 18.1999C28.3967 18.3237 28.7363 18.3826 29.0774 18.3729C29.7415 18.3541 30.3721 18.0771 30.8351 17.6008C31.2982 17.1244 31.5573 16.4862 31.5573 15.8219C31.5573 15.1575 31.2982 14.5193 30.8351 14.043C30.3721 13.5666 29.7415 13.2896 29.0774 13.2708Z" fill="url(#paint7_linear_44_863)"/>
<path d="M19.906 13.2708C19.5649 13.2611 19.2254 13.32 18.9074 13.4439C18.5895 13.5677 18.2996 13.7541 18.0549 13.9919C17.8103 14.2298 17.6158 14.5143 17.483 14.8286C17.3502 15.1429 17.2817 15.4806 17.2817 15.8219C17.2817 16.1631 17.3502 16.5008 17.483 16.8151C17.6158 17.1295 17.8103 17.414 18.0549 17.6518C18.2996 17.8896 18.5895 18.076 18.9074 18.1999C19.2254 18.3237 19.5649 18.3826 19.906 18.3729C20.5701 18.3541 21.2007 18.0771 21.6638 17.6008C22.1268 17.1244 22.3859 16.4862 22.3859 15.8219C22.3859 15.1575 22.1268 14.5193 21.6638 14.043C21.2007 13.5666 20.5701 13.2896 19.906 13.2708Z" fill="url(#paint8_linear_44_863)"/>
<path d="M46.9952 42.8036L48.5571 43.3099L48.5877 43.3181C48.6778 43.3499 48.7592 43.4021 48.8257 43.4706C48.8922 43.5392 48.942 43.6222 48.971 43.7131C49.0001 43.8041 49.0077 43.9006 48.9933 43.995C48.9789 44.0894 48.9428 44.1791 48.8878 44.2573C48.8137 44.3616 48.7088 44.4402 48.5877 44.4818L47.0258 44.9882C46.5505 45.1463 46.1186 45.4129 45.7642 45.7669C45.4098 46.121 45.1428 46.5527 44.9842 47.0278L44.4778 48.5876C44.4356 48.7082 44.3569 48.8127 44.2526 48.8866C44.1484 48.9606 44.0237 49.0003 43.896 49.0003C43.7682 49.0003 43.6435 48.9606 43.5393 48.8866C43.435 48.8127 43.3564 48.7082 43.3141 48.5876L42.8057 47.0278C42.6481 46.5517 42.3817 46.119 42.0277 45.7639C41.6736 45.4087 41.2417 45.141 40.7661 44.982L39.2042 44.4737C39.1142 44.4419 39.0327 44.3897 38.9662 44.3211C38.8997 44.2526 38.8499 44.1696 38.8209 44.0786C38.7918 43.9877 38.7842 43.8912 38.7986 43.7968C38.8131 43.7024 38.8492 43.6126 38.9041 43.5345C38.9782 43.4301 39.0831 43.3516 39.2042 43.3099L40.7661 42.8036C41.2351 42.6414 41.6604 42.3731 42.0089 42.0197C42.3573 41.6663 42.6195 41.2373 42.7751 40.766L43.2835 39.2041C43.3257 39.0835 43.4044 38.9791 43.5087 38.9051C43.6129 38.8312 43.7375 38.7915 43.8653 38.7915C43.9931 38.7915 44.1178 38.8312 44.222 38.9051C44.3262 38.9791 44.4049 39.0835 44.4472 39.2041L44.9556 40.764C45.114 41.2389 45.3807 41.6704 45.7347 42.0245C46.0887 42.3785 46.5203 42.6452 46.9952 42.8036Z" fill="url(#paint9_linear_44_863)"/>
<path d="M32.3683 35.0065C33.0045 35.646 33.4833 36.4246 33.7669 37.2809L34.6815 40.0923C34.758 40.309 34.8998 40.4967 35.0874 40.6294C35.275 40.7621 35.4991 40.8334 35.7289 40.8334C35.9587 40.8334 36.1829 40.7621 36.3704 40.6294C36.558 40.4967 36.6998 40.309 36.7763 40.0923L37.691 37.2809C37.976 36.4266 38.4562 35.6505 39.0934 35.014C39.7306 34.3775 40.5073 33.8982 41.3619 33.6141L44.1753 32.6994C44.3904 32.6216 44.5763 32.4794 44.7076 32.2922C44.839 32.105 44.9095 31.8818 44.9095 31.6531C44.9095 31.4244 44.839 31.2012 44.7076 31.014C44.5763 30.8267 44.3904 30.6845 44.1753 30.6067L44.1181 30.5924L41.3047 29.6778C40.4501 29.3936 39.6734 28.9143 39.0362 28.2779C38.399 27.6414 37.9189 26.8652 37.6338 26.0109L36.7212 23.1996C36.6451 22.9822 36.5034 22.7938 36.3156 22.6605C36.1277 22.5272 35.9031 22.4556 35.6728 22.4556C35.4425 22.4556 35.2178 22.5272 35.03 22.6605C34.8422 22.7938 34.7004 22.9822 34.6244 23.1996L33.7097 26.0109L33.6873 26.0804C33.4012 26.9134 32.9291 27.6703 32.3068 28.2936C31.6846 28.9169 30.9285 29.3903 30.096 29.6778L27.2825 30.5924C27.0675 30.6702 26.8816 30.8124 26.7502 30.9997C26.6188 31.1869 26.5483 31.4101 26.5483 31.6388C26.5483 31.8675 26.6188 32.0907 26.7502 32.2779C26.8816 32.4651 27.0675 32.6073 27.2825 32.6851L30.096 33.5998C30.9535 33.8856 31.7293 34.3675 32.3683 35.0065Z" fill="url(#paint10_linear_44_863)"/>
</g>
<defs>
<radialGradient id="paint0_radial_44_863" cx="0" cy="0" r="1" gradientUnits="userSpaceOnUse" gradientTransform="translate(0.634931 23.5569) rotate(30.4076) scale(45.4326 72.3669)">
<stop stop-color="#F08AF4"/>
<stop offset="0.535" stop-color="#9C6CFE"/>
<stop offset="1" stop-color="#4E44DB"/>
</radialGradient>
<linearGradient id="paint1_linear_44_863" x1="24.5061" y1="26.6378" x2="31.8969" y2="54.2534" gradientUnits="userSpaceOnUse">
<stop stop-color="#885EDB" stop-opacity="0"/>
<stop offset="1" stop-color="#E362F8"/>
</linearGradient>
<radialGradient id="paint2_radial_44_863" cx="0" cy="0" r="1" gradientUnits="userSpaceOnUse" gradientTransform="translate(35.8149 36.1234) rotate(-90) scale(7.53955 4.27952)">
<stop stop-color="#4E44DB"/>
<stop offset="1" stop-color="#4E44DB" stop-opacity="0"/>
</radialGradient>
<radialGradient id="paint3_radial_44_863" cx="0" cy="0" r="1" gradientUnits="userSpaceOnUse" gradientTransform="translate(34.558 33.6101) rotate(-134.995) scale(7.10774 5.33079)">
<stop stop-color="#4E44DB"/>
<stop offset="1" stop-color="#4E44DB" stop-opacity="0"/>
</radialGradient>
<radialGradient id="paint4_radial_44_863" cx="0" cy="0" r="1" gradientUnits="userSpaceOnUse" gradientTransform="translate(35.8149 32.3524) rotate(180) scale(11.3073 4.43734)">
<stop stop-color="#4E44DB"/>
<stop offset="1" stop-color="#4E44DB" stop-opacity="0"/>
</radialGradient>
<linearGradient id="paint5_linear_44_863" x1="22.8852" y1="4.08341" x2="26.5091" y2="7.90337" gradientUnits="userSpaceOnUse">
<stop stop-color="#8B52F4"/>
<stop offset="1" stop-color="#3D35B1"/>
</linearGradient>
<radialGradient id="paint6_radial_44_863" cx="0" cy="0" r="1" gradientUnits="userSpaceOnUse" gradientTransform="translate(3.675 1.16588) rotate(37.6946) scale(40.8317 77.1354)">
<stop stop-color="#F08AF4"/>
<stop offset="0.535" stop-color="#9C6CFE"/>
<stop offset="1" stop-color="#4E44DB"/>
</radialGradient>
<linearGradient id="paint7_linear_44_863" x1="27.736" y1="13.4668" x2="31.6029" y2="20.141" gradientUnits="userSpaceOnUse">
<stop stop-color="#FDFDFD"/>
<stop offset="1" stop-color="#F9DCFA"/>
</linearGradient>
<linearGradient id="paint8_linear_44_863" x1="18.5626" y1="13.4668" x2="22.4295" y2="20.141" gradientUnits="userSpaceOnUse">
<stop stop-color="#FDFDFD"/>
<stop offset="1" stop-color="#F9DCFA"/>
</linearGradient>
<linearGradient id="paint9_linear_44_863" x1="40.8335" y1="39.8126" x2="46.9625" y2="47.9772" gradientUnits="userSpaceOnUse">
<stop stop-color="#FFA43D"/>
<stop offset="1" stop-color="#FB5937"/>
</linearGradient>
<linearGradient id="paint10_linear_44_863" x1="40.978" y1="38.2079" x2="28.0931" y2="23.3915" gradientUnits="userSpaceOnUse">
<stop stop-color="#FF8A69"/>
<stop offset="1" stop-color="#FFCD0F"/>
</linearGradient>
<clipPath id="clip0_44_863">
<rect width="49" height="49" fill="white"/>
</clipPath>
</defs>
</svg>
